<svg xmlns="http://www.w3.org/2000/svg" width="16" height="16" viewBox="0 0 16 16" fill="none"><path d="M7.40796 3.2688L8.45328 5.84471C8.89028 6.92197 9.74469 7.77637 10.8219 8.21337L13.3979 9.25869C13.8741 9.45214 13.8741 10.1265 13.3979 10.3196L10.8219 11.3649C9.74469 11.8019 8.89028 12.6563 8.45328 13.7336L7.40796 16.3095C7.21451 16.7857 6.54013 16.7857 6.34704 16.3095L5.30173 13.7336C4.86473 12.6563 4.01032 11.8019 2.93307 11.3649L0.357151 10.3196C-0.11905 10.1262 -0.11905 9.45178 0.357151 9.25869L2.93307 8.21337C4.01032 7.77637 4.86473 6.92197 5.30173 5.84471L6.34704 3.2688C6.54013 2.7926 7.21451 2.7926 7.40796 3.2688ZM13.7536 0.243908L14.0592 1.12517C14.3002 1.82023 14.8464 2.36649 15.5415 2.60749L16.4228 2.9131C16.748 3.02598 16.748 3.48585 16.4228 3.59873L15.5415 3.90434C14.8464 4.14534 14.3002 4.69159 14.0592 5.38666L13.7536 6.26792C13.6407 6.59313 13.1808 6.59313 13.0679 6.26792L12.7623 5.38666C12.5213 4.69159 11.9751 4.14534 11.28 3.90434L10.3987 3.59873C10.0735 3.48585 10.0735 3.02598 10.3987 2.9131L11.28 2.60749C11.9751 2.36649 12.5213 1.82023 12.7623 1.12517L13.0679 0.243908C13.1804 -0.0813026 13.6407 -0.0813026 13.7536 0.243908Z" fill="var(--iconMain"></path><path d="M14.0592 1.12517L13.7536 0.243908C13.6407 -0.0813026 13.1804 -0.0813026 13.0679 0.243908L12.7623 1.12517C12.5213 1.82023 11.9751 2.36649 11.28 2.60749L10.3987 2.9131C10.0735 3.02598 10.0735 3.48585 10.3987 3.59873L11.28 3.90434C11.9751 4.14534 12.5213 4.69159 12.7623 5.38666L13.0679 6.26792C13.1808 6.59313 13.6407 6.59313 13.7536 6.26792L14.0592 5.38666C14.3002 4.69159 14.8464 4.14534 15.5415 3.90434L16.4228 3.59873C16.748 3.48585 16.748 3.02598 16.4228 2.9131L15.5415 2.60749C14.8464 2.36649 14.3002 1.82023 14.0592 1.12517Z" fill="var(--iconMain"></path></svg>