<svg xmlns="http://www.w3.org/2000/svg" width="17" height="17" viewBox="0 0 17 17" fill="none" class=" Icon_secondary__0QdAz"><path d="M8.84731 8.52676L11.4778 5.89628L2.98143 1.12102C2.41832 0.816781 1.8908 0.774081 1.42822 1.10678L8.84731 8.52676ZM11.9261 11.6065L14.6607 10.0684C15.1945 9.76951 15.4871 9.34607 15.4871 8.87637C15.4871 8.40756 15.1945 7.98323 14.6616 7.68433L12.1859 6.29392L9.39885 9.08008L11.9261 11.6065ZM0.970977 1.75351C0.914044 1.92875 0.882019 2.12446 0.882019 2.33885V15.4201C0.882019 15.759 0.956744 16.0508 1.09196 16.283L8.29488 9.07919L0.970977 1.75351ZM8.84731 9.63073L1.68442 16.7945C1.82141 16.847 1.96908 16.8746 2.12476 16.8746C2.40231 16.8746 2.69142 16.7927 2.98587 16.629L11.2189 12.0059L8.84731 9.63073Z" fill="currentColor"></path></svg>