<svg xmlns="http://www.w3.org/2000/svg" width="189" height="51" viewBox="0 0 189 51" fill="none"><g clip-path="url(#clip0_2002_934)"><path d="M0 0.648438H1.92007C3.39236 0.648438 4.40971 1.12487 4.40971 2.43596C4.40971 3.41033 3.84013 3.90109 2.94458 4.12319V4.14468C3.91178 4.22707 4.5924 4.85754 4.5924 5.8534C4.5924 7.37942 3.33146 7.74481 1.88783 7.74481H0V0.648438ZM1.01735 3.67899H1.57617C2.56128 3.67899 3.39594 3.58585 3.39594 2.53985C3.39594 1.69444 2.67233 1.48309 2.08485 1.48309H1.01735V3.67899ZM1.01735 6.91015H1.78036C2.69383 6.91015 3.51774 6.71671 3.51774 5.76026C3.51774 4.6641 2.55054 4.51007 1.67648 4.51007H1.01735V6.91015Z" fill="black"></path><path d="M5.66357 2.55734H6.55913V3.35976H6.58062C6.83496 2.82243 7.38304 2.43555 7.93112 2.43555C8.21769 2.43555 8.3574 2.46779 8.56159 2.50719V3.35976C8.38964 3.28811 8.1962 3.26662 8.035 3.26662C7.18243 3.26662 6.62361 4.07978 6.62361 5.38013V7.73723H5.66716V2.55734H5.66357Z" fill="black"></path><path d="M10.5924 1.40051H9.51416V0.322266H10.5924V1.40051ZM9.57506 2.55757H10.5315V7.74103H9.57506V2.55757Z" fill="black"></path><path d="M15.5611 7.01035H15.5396C15.2852 7.39723 14.6942 7.86291 13.77 7.86291C12.2045 7.86291 11.5454 6.46943 11.5454 5.05804C11.5454 3.64665 12.2762 2.43586 13.7807 2.43586C14.687 2.43586 15.2029 2.7905 15.5002 3.27051H15.5217V0.118164H16.4781V7.74112H15.5647V7.01035H15.5611ZM13.9956 7.09274C15.0739 7.09274 15.5217 6.02524 15.5217 5.16192C15.5217 4.19473 15.0237 3.20962 13.9849 3.20962C12.9461 3.20962 12.5413 4.18398 12.5628 5.12968C12.5413 5.94285 12.9711 7.09274 13.9956 7.09274Z" fill="black"></path><path d="M22.4391 7.51871C22.4391 9.09489 21.6259 9.9976 19.7667 9.9976C19.2186 9.9976 18.7386 9.92596 17.9076 9.64296L18.0079 8.75816C18.7386 9.09489 19.1757 9.22743 19.8778 9.22743C20.8844 9.22743 21.4826 8.54681 21.4826 7.44707V6.93839H21.4611C21.0527 7.47572 20.3829 7.74081 19.7237 7.74081C18.2407 7.74081 17.5063 6.53002 17.5063 5.19027C17.5063 3.85052 18.2586 2.43555 19.824 2.43555C20.7375 2.43555 21.2462 2.77228 21.5328 3.3311H21.5543V2.55734H22.4391V7.51871ZM21.4826 5.21176C21.4826 4.13352 20.9847 3.20931 19.9673 3.20931C18.95 3.20931 18.5237 4.25531 18.5237 5.14012C18.5237 6.11448 19.0718 6.97063 19.9673 6.97063C20.8629 6.97063 21.4826 6.17896 21.4826 5.21176Z" fill="black"></path><path d="M24.7531 1.40051H23.6748V0.322266H24.7531V1.40051ZM23.7357 2.55757H24.6922V7.74103H23.7357V2.55757Z" fill="black"></path><path d="M25.9601 2.55734H26.8843V3.38125H26.9058C27.1888 2.79019 27.8802 2.43555 28.6038 2.43555C29.9471 2.43555 30.5454 3.2702 30.5454 4.6601V7.74081H29.5889V5.05773C29.5889 3.84694 29.3238 3.25946 28.4892 3.20931C27.4002 3.20931 26.913 4.08337 26.913 5.34431V7.74439H25.9565V2.55734H25.9601Z" fill="black"></path><path d="M36.4059 7.51871C36.4059 9.09489 35.5927 9.9976 33.7335 9.9976C33.1854 9.9976 32.7054 9.92596 31.8744 9.64296L31.9747 8.75816C32.7054 9.09489 33.1425 9.22743 33.8446 9.22743C34.8512 9.22743 35.4494 8.54681 35.4494 7.44707V6.93839H35.4279C35.0195 7.47572 34.3497 7.74081 33.6905 7.74081C32.2075 7.74081 31.4731 6.53002 31.4731 5.19027C31.4731 3.85052 32.2254 2.43555 33.7908 2.43555C34.7043 2.43555 35.213 2.77228 35.4996 3.3311H35.521V2.55734H36.4059V7.51871ZM35.453 5.21176C35.453 4.13352 34.9551 3.20931 33.9377 3.20931C32.9204 3.20931 32.4941 4.25531 32.4941 5.14012C32.4941 6.11448 33.0422 6.97063 33.9377 6.97063C34.8333 6.97063 35.453 6.17896 35.453 5.21176Z" fill="black"></path><path d="M40.5469 0.648438H41.6645L43.3625 6.72746H43.384L44.8993 0.648438H46.3429L47.8761 6.72746H47.8976L49.5955 0.648438H50.6738L48.4886 7.74481H47.1776L45.6336 1.54399H45.6121L44.0574 7.74481H42.6962L40.5505 0.648438H40.5469Z" fill="black"></path><path d="M53.257 2.43555C54.8331 2.43555 55.8899 3.57469 55.8899 5.15087C55.8899 6.6339 54.8116 7.86618 53.257 7.86618C51.7023 7.86618 50.6133 6.63749 50.6133 5.15087C50.6133 3.57469 51.67 2.43555 53.257 2.43555ZM53.257 7.09243C54.3746 7.09243 54.8725 6.07508 54.8725 5.15087C54.8725 4.16576 54.2743 3.20931 53.257 3.20931C52.2396 3.20931 51.6306 4.16576 51.6306 5.15087C51.6306 6.07508 52.1286 7.09243 53.257 7.09243Z" fill="black"></path><path d="M56.9321 2.55734H57.8277V3.35976H57.8492C58.1035 2.82243 58.6516 2.43555 59.1997 2.43555C59.4827 2.43555 59.626 2.46779 59.8301 2.50719V3.35976C59.6582 3.28811 59.4648 3.26662 59.3036 3.26662C58.451 3.26662 57.8922 4.07978 57.8922 5.38013V7.73723H56.9357V2.55734H56.9321Z" fill="black"></path><path d="M60.7866 0.118164H61.7431V7.74112H60.7866V0.118164Z" fill="black"></path><path d="M66.7149 7.01035H66.6934C66.439 7.39723 65.8516 7.86291 64.9238 7.86291C63.3583 7.86291 62.6992 6.46943 62.6992 5.05804C62.6992 3.64665 63.43 2.43586 64.9345 2.43586C65.8408 2.43586 66.3567 2.7905 66.654 3.27051H66.6755V0.118164H67.6319V7.74112H66.7185V7.01035H66.7149ZM65.1495 7.09274C66.2277 7.09274 66.6755 6.02524 66.6755 5.16192C66.6755 4.19473 66.1776 3.20962 65.1423 3.20962C64.107 3.20962 63.6987 4.18398 63.7202 5.12968C63.6987 5.94285 64.1285 7.09274 65.153 7.09274H65.1495Z" fill="black"></path><path d="M68.6459 6.72737C69.022 6.97096 69.5593 7.09275 69.8352 7.09275C70.2722 7.09275 70.8095 6.91006 70.8095 6.35123C70.8095 5.40553 68.5635 5.48792 68.5635 4.03354C68.5635 2.95529 69.3659 2.43945 70.394 2.43945C70.8418 2.43945 71.2072 2.52901 71.5833 2.64364L71.5009 3.4783C71.286 3.34575 70.72 3.21321 70.4943 3.21321C70.0071 3.21321 69.5808 3.4174 69.5808 3.84368C69.5808 4.90043 71.8269 4.59595 71.8269 6.25093C71.8269 7.35784 70.9421 7.86651 70.0179 7.86651C69.5307 7.86651 69.0328 7.81636 68.5957 7.57993L68.6459 6.72737Z" fill="black"></path><path d="M77.1857 3.33114H75.9678V2.55738H77.1857V2.08094C77.1857 0.820003 77.5117 -0.00390625 78.9231 -0.00390625C79.1667 -0.00390625 79.3709 0.0283337 79.5643 0.0569914L79.5249 0.83075C79.4139 0.791346 79.2312 0.769852 79.0664 0.769852C78.2425 0.769852 78.1422 1.30002 78.1422 1.99855V2.55738H79.5142V3.33114H78.1422V7.74084H77.1857V3.33114Z" fill="black"></path><path d="M82.7314 2.43945C84.3076 2.43945 85.3643 3.5786 85.3643 5.15119C85.3643 6.63423 84.2861 7.86293 82.7314 7.86293C81.1767 7.86293 80.0913 6.63423 80.0913 5.15119C80.0913 3.57502 81.1481 2.43945 82.7314 2.43945ZM82.7314 7.09275C83.8491 7.09275 84.347 6.0754 84.347 5.15119C84.347 4.16608 83.7487 3.20963 82.7314 3.20963C81.7141 3.20963 81.1051 4.16608 81.1051 5.15119C81.1051 6.0754 81.603 7.09275 82.7314 7.09275Z" fill="black"></path><path d="M86.439 2.56125H87.3345V3.36366H87.356C87.6103 2.82633 88.1584 2.43945 88.7065 2.43945C88.9895 2.43945 89.1328 2.47169 89.337 2.5111V3.36366C89.165 3.29202 88.9716 3.27053 88.8104 3.27053C87.9578 3.27053 87.399 4.08369 87.399 5.38403V7.74113H86.4425V2.56125H86.439Z" fill="black"></path><path d="M92.7759 0.652344H93.8935L95.5915 6.72778H95.613L97.1283 0.652344H98.5719L100.105 6.72778H100.127L101.825 0.652344H102.903L100.718 7.74513H99.4066L97.8626 1.5479H97.8411L96.2865 7.74513H94.9252L92.7831 0.652344H92.7759Z" fill="black"></path><path d="M105.629 2.43945C107.205 2.43945 108.262 3.5786 108.262 5.15119C108.262 6.63423 107.184 7.86293 105.629 7.86293C104.074 7.86293 102.985 6.63423 102.985 5.15119C102.985 3.57502 104.042 2.43945 105.629 2.43945ZM105.629 7.09275C106.747 7.09275 107.245 6.0754 107.245 5.15119C107.245 4.16608 106.646 3.20963 105.629 3.20963C104.612 3.20963 104.003 4.16608 104.003 5.15119C104.003 6.0754 104.501 7.09275 105.629 7.09275Z" fill="black"></path><path d="M109.501 2.56125H110.425V3.38516H110.447C110.73 2.79409 111.421 2.43945 112.145 2.43945C113.484 2.43945 114.086 3.27411 114.086 4.66401V7.74113H113.13V5.05805C113.13 3.84726 112.865 3.25978 112.034 3.20963C110.945 3.20963 110.457 4.08369 110.457 5.34463V7.74113H109.501V2.56125Z" fill="black"></path><path d="M119.302 7.01067H119.281C119.026 7.39755 118.439 7.86324 117.511 7.86324C115.946 7.86324 115.287 6.46976 115.287 5.05836C115.287 3.64697 116.017 2.43618 117.522 2.43618C118.428 2.43618 118.944 2.79082 119.238 3.27084H119.259V0.12207H120.216V7.74502H119.302V7.01425V7.01067ZM117.737 7.09306C118.815 7.09306 119.263 6.02556 119.263 5.16225C119.263 4.19863 118.765 3.20994 117.73 3.20994C116.694 3.20994 116.286 4.1843 116.308 5.13001C116.286 5.94317 116.712 7.09306 117.74 7.09306H117.737Z" fill="black"></path><path d="M125.797 7.52978C125.431 7.66232 125.016 7.86651 124.16 7.86651C122.322 7.86651 121.477 6.74886 121.477 5.06163C121.477 3.52845 122.444 2.43945 123.905 2.43945C125.632 2.43945 126.191 3.70039 126.191 5.36612H122.49C122.49 6.39064 123.293 7.09275 124.199 7.09275C124.83 7.09275 125.56 6.76677 125.793 6.57333V7.52978H125.797ZM125.177 4.65326C125.177 3.86159 124.708 3.20963 123.887 3.20963C122.952 3.20963 122.566 3.98339 122.494 4.65326H125.177Z" fill="black"></path><path d="M127.53 2.56125H128.426V3.36366H128.447C128.702 2.82633 129.25 2.43945 129.798 2.43945C130.081 2.43945 130.224 2.47169 130.428 2.5111V3.36366C130.256 3.29202 130.063 3.27053 129.898 3.27053C129.046 3.27053 128.487 4.08369 128.487 5.38403V7.74113H127.53V2.56125Z" fill="black"></path><path d="M139.37 3.91156C139.277 5.06145 138.965 5.72058 138.557 6.3403L139.796 7.74095H138.524L137.944 7.04958C137.435 7.6299 136.816 7.86274 135.913 7.86274C134.512 7.86274 133.627 7.07107 133.627 5.88178C133.627 4.80353 134.258 4.19456 135.211 3.80768C134.835 3.34915 134.48 2.87272 134.48 2.1921C134.48 1.05295 135.315 0.526367 136.328 0.526367C137.253 0.526367 138.087 1.01355 138.087 2.1312C138.087 3.0375 137.285 3.64648 136.533 3.97962L137.976 5.62744C138.252 5.19041 138.363 4.72114 138.413 3.91156H139.37ZM136.099 7.09257C136.758 7.09257 137.188 6.66628 137.41 6.41195L135.702 4.40949C135.164 4.77487 134.706 5.1116 134.706 5.81013C134.706 6.59106 135.365 7.08899 136.099 7.08899V7.09257ZM136.067 3.41363C136.493 3.20945 137.134 2.77242 137.134 2.17419C137.134 1.52222 136.78 1.30013 136.293 1.30013C135.805 1.30013 135.44 1.60461 135.44 2.21359C135.44 2.69003 135.766 3.0769 136.071 3.41363H136.067Z" fill="black"></path><path d="M143.368 0.652344H144.385V3.61842H147.777V0.652344H148.795V7.74513H147.777V4.51397H144.385V7.74513H143.368V0.652344Z" fill="black"></path><path d="M150.593 2.92663C151.069 2.64364 151.639 2.43945 152.302 2.43945C153.785 2.43945 154.386 3.17023 154.386 4.5852V6.72737C154.386 7.31843 154.408 7.59068 154.426 7.74471H153.53V7.07484H153.509C153.287 7.39007 152.778 7.86651 151.904 7.86651C150.786 7.86651 150.005 7.37933 150.005 6.25093C150.005 4.95059 151.428 4.54221 152.413 4.54221C152.789 4.54221 153.054 4.54221 153.43 4.56371C153.43 3.66815 153.104 3.21321 152.151 3.21321C151.614 3.21321 151.033 3.4174 150.647 3.74338L150.596 2.93022L150.593 2.92663ZM153.426 5.27299C153.222 5.27299 153.022 5.25149 152.817 5.25149C152.298 5.25149 151.019 5.33388 151.019 6.24735C151.019 6.79543 151.546 7.08917 151.983 7.08917C152.928 7.08917 153.426 6.4981 153.426 5.72793V5.2694V5.27299Z" fill="black"></path><path d="M155.758 2.56125H156.672V3.29202H156.693C156.948 2.90514 157.535 2.43945 158.452 2.43945C159.957 2.43945 160.687 3.66815 160.687 5.06163C160.687 6.45512 160.028 7.86651 158.463 7.86651C157.549 7.86651 157.03 7.51187 156.736 7.03185H156.715V9.87613H155.758V2.56125ZM158.248 3.20963C157.213 3.20963 156.715 4.19474 156.715 5.16194C156.715 6.02525 157.163 7.09275 158.241 7.09275C159.319 7.09275 159.695 5.94286 159.674 5.1297C159.695 4.19474 159.287 3.20963 158.252 3.20963H158.248Z" fill="black"></path><path d="M161.737 2.56125H162.65V3.29202H162.672C162.926 2.90514 163.514 2.43945 164.431 2.43945C165.935 2.43945 166.666 3.66815 166.666 5.06163C166.666 6.45512 166.007 7.86651 164.441 7.86651C163.528 7.86651 163.009 7.51187 162.715 7.03185H162.693V9.87613H161.737V2.56125ZM164.226 3.20963C163.191 3.20963 162.693 4.19474 162.693 5.16194C162.693 6.02525 163.141 7.09275 164.219 7.09275C165.298 7.09275 165.674 5.94286 165.652 5.1297C165.674 4.19474 165.265 3.20963 164.23 3.20963H164.226Z" fill="black"></path><path d="M168.955 1.40084H167.877V0.326172H168.955V1.40442V1.40084ZM167.938 2.56147H168.894V7.74494H167.938V2.56147Z" fill="black"></path><path d="M170.324 2.56125H171.248V3.38516H171.269C171.552 2.79409 172.244 2.43945 172.967 2.43945C174.307 2.43945 174.909 3.27411 174.909 4.66401V7.74113H173.953V5.05805C173.953 3.84726 173.687 3.25978 172.856 3.20963C171.767 3.20963 171.28 4.08369 171.28 5.34463V7.74113H170.324V2.56125Z" fill="black"></path><path d="M180.311 7.52978C179.945 7.66232 179.53 7.86651 178.674 7.86651C176.836 7.86651 175.991 6.74886 175.991 5.06163C175.991 3.52845 176.954 2.43945 178.419 2.43945C180.146 2.43945 180.705 3.70039 180.705 5.36612H177.004C177.004 6.39064 177.807 7.09275 178.713 7.09275C179.344 7.09275 180.074 6.76677 180.307 6.57333V7.52978H180.311ZM179.691 4.65326C179.691 3.86159 179.222 3.20963 178.402 3.20963C177.467 3.20963 177.08 3.98339 177.008 4.65326H179.691Z" fill="black"></path><path d="M181.697 6.72737C182.073 6.97096 182.611 7.09275 182.886 7.09275C183.323 7.09275 183.861 6.91006 183.861 6.35123C183.861 5.40553 181.615 5.48792 181.615 4.03354C181.615 2.95529 182.417 2.43945 183.445 2.43945C183.893 2.43945 184.258 2.52901 184.635 2.64364L184.552 3.4783C184.337 3.34575 183.771 3.21321 183.546 3.21321C183.058 3.21321 182.632 3.4174 182.632 3.84368C182.632 4.90043 184.878 4.59595 184.878 6.25093C184.878 7.35784 183.993 7.86651 183.069 7.86651C182.582 7.86651 182.084 7.81636 181.647 7.58351L181.697 6.73095V6.72737Z" fill="black"></path><path d="M185.691 6.72737C186.067 6.97096 186.605 7.09275 186.881 7.09275C187.318 7.09275 187.855 6.91006 187.855 6.35123C187.855 5.40553 185.609 5.48792 185.609 4.03354C185.609 2.95529 186.411 2.43945 187.439 2.43945C187.887 2.43945 188.253 2.52901 188.629 2.64364L188.546 3.4783C188.331 3.34575 187.765 3.21321 187.54 3.21321C187.053 3.21321 186.626 3.4174 186.626 3.84368C186.626 4.90043 188.872 4.59595 188.872 6.25093C188.872 7.35784 187.987 7.86651 187.063 7.86651C186.576 7.86651 186.078 7.81636 185.641 7.58351L185.691 6.73095V6.72737Z" fill="black"></path><path d="M92.1953 39.6593C92.1953 44.6099 95.774 48.5002 101.427 48.5002H106.646V43.8146H101.896C98.8582 43.8146 97.1853 42.0128 97.1853 39.6593C97.1853 37.3058 98.8618 35.5039 101.896 35.5039H106.646V30.8184H101.427C95.774 30.8184 92.1953 34.7051 92.1953 39.6593Z" fill="#CC0033"></path><path d="M149.418 30.5996C147.509 30.5996 145.725 30.9865 143.418 32.5412C141.107 30.9865 139.327 30.5996 137.418 30.5996C133.165 30.5996 130.196 33.5227 130.196 37.7354V48.4999H135.186V37.9826C135.186 36.1843 136.282 35.2851 138.084 35.2851C139.99 35.2851 140.928 36.2344 140.928 37.7569V48.4999H145.911V37.7569C145.911 36.2344 146.853 35.2851 148.755 35.2851C150.557 35.2851 151.653 36.1843 151.653 37.9826V48.4999H156.643V37.7354C156.643 33.5263 153.674 30.5996 149.422 30.5996H149.418Z" fill="#CC0033"></path><path d="M168.622 30.5996C162.694 30.5996 159.344 35.2207 159.344 39.6626C159.344 44.1046 162.694 48.7185 168.622 48.7185C174.551 48.7185 177.889 44.0938 177.889 39.6626C177.889 35.2314 174.54 30.5996 168.622 30.5996ZM168.615 44.0293C165.835 44.0293 164.334 41.8657 164.334 39.6554C164.334 37.4452 165.839 35.2816 168.615 35.2816C171.391 35.2816 172.899 37.4452 172.899 39.6554C172.899 41.8657 171.395 44.0293 168.615 44.0293Z" fill="#CC0033"></path><path d="M63.5339 22.8223V31.7133C62.3267 31.0148 60.8831 30.5993 59.2138 30.5993C53.2279 30.5993 50.0469 35.2597 50.0469 39.6623C50.0469 44.0648 53.2279 48.7181 59.2138 48.7181C63.7094 48.7181 65.3895 46.5473 68.5239 45.1072V22.8223H63.5339ZM55.0369 39.6551C55.0369 37.4485 56.5414 35.2812 59.3176 35.2812C62.0939 35.2812 63.5482 37.3553 63.5984 39.5405V39.7661C63.5482 41.9513 62.0974 44.0254 59.3176 44.0254C56.5378 44.0254 55.0369 41.8617 55.0369 39.6515V39.6551Z" fill="#CC0033"></path><path d="M83.3226 22.8262L83.3155 24.0334H81.5638L81.5709 28.4252H80.2742V24.0334H78.5225V22.8262H83.3226Z" fill="#CC0033"></path><path d="M89.079 22.8262V24.0334H87.3273V28.4252H86.0305V24.0334H84.2788V22.8262H89.0826H89.079Z" fill="#CC0033"></path><path d="M73.6361 22.8223L76.1831 26.4152V22.8258H77.4225V28.4249H76.0613L73.5287 24.8462V28.4249H72.2856V22.8223H73.6326H73.6361Z" fill="#CC0033"></path><path d="M80.6105 30.5996C74.6855 30.5996 71.3325 35.2207 71.3325 39.6626C71.3325 44.1046 74.6819 48.7185 80.6105 48.7185C86.539 48.7185 89.8776 44.0938 89.8776 39.6626C89.8776 35.2314 86.5283 30.5996 80.6105 30.5996ZM80.6033 44.0293C77.8271 44.0293 76.3225 41.8657 76.3225 39.6554C76.3225 37.4452 77.8271 35.2816 80.6033 35.2816C83.3795 35.2816 84.8876 37.4452 84.8876 39.6554C84.8876 41.8657 83.3831 44.0293 80.6033 44.0293Z" fill="#CC0033"></path><path d="M118.228 30.5996C112.303 30.5996 108.95 35.2207 108.95 39.6626C108.95 44.1046 112.303 48.7185 118.228 48.7185C124.153 48.7185 127.495 44.0938 127.495 39.6626C127.495 35.2314 124.145 30.5996 118.228 30.5996ZM118.22 44.0293C115.444 44.0293 113.94 41.8657 113.94 39.6554C113.94 37.4452 115.444 35.2816 118.22 35.2816C120.997 35.2816 122.505 37.4452 122.505 39.6554C122.505 41.8657 121 44.0293 118.22 44.0293Z" fill="#CC0033"></path><path fill-rule="evenodd" clip-rule="evenodd" d="M30.7607 20.5371C29.3064 20.5371 27.8699 20.8523 26.8597 21.2679C25.8495 20.8523 24.4166 20.5371 22.9587 20.5371C16.5465 20.5371 10.7612 26.5982 10.7612 34.9161C10.7612 43.9863 18.1693 51.0003 26.8597 51.0003C35.5502 51.0003 42.9582 43.9863 42.9582 34.9161C42.9582 26.5982 37.1693 20.5371 30.7572 20.5371H30.7607ZM26.8633 25.477C28.0992 26.2113 29.7291 28.3428 29.7291 30.7428C29.7291 32.5053 28.5684 33.8916 26.8633 33.8916C25.1582 33.8916 23.9975 32.5053 23.9975 30.7428C23.9975 28.3428 25.631 26.2113 26.8633 25.477ZM26.8633 47.0383C20.2183 47.0383 14.7196 41.6937 14.7196 34.8373C14.7196 28.5792 19.2368 24.302 22.7831 24.4632C21.1031 26.1397 20.0822 28.5792 20.0822 30.9434C20.0822 35.0057 23.3061 37.8571 26.8597 37.8571C30.4133 37.8571 33.6373 35.0093 33.6373 30.9434C33.6373 28.5792 32.6163 26.1397 30.9363 24.4632C34.4862 24.3056 38.9998 28.5792 38.9998 34.8373C38.9998 41.6937 33.5011 47.0383 26.8561 47.0383H26.8633Z" fill="#CC0033"></path></g><defs><clipPath id="clip0_2002_934"><rect width="188.869" height="51" fill="white"></rect></clipPath></defs></svg>