<svg xmlns="http://www.w3.org/2000/svg" width="20" height="20" viewBox="0 0 20 20" fill="none" class=" Icon_main__igGXX"><path d="M9.98866 0.656331C9.81208 0.659092 9.6438 0.731798 9.52077 0.858494C9.39773 0.98519 9.32999 1.15552 9.33241 1.33211V3.33211C9.33116 3.42045 9.34748 3.50816 9.38042 3.59014C9.41337 3.67212 9.46227 3.74673 9.5243 3.80965C9.58633 3.87256 9.66025 3.92252 9.74175 3.95662C9.82326 3.99072 9.91073 4.00827 9.99908 4.00827C10.0874 4.00827 10.1749 3.99072 10.2564 3.95662C10.3379 3.92252 10.4118 3.87256 10.4739 3.80965C10.5359 3.74673 10.5848 3.67212 10.6177 3.59014C10.6507 3.50816 10.667 3.42045 10.6657 3.33211V1.33211C10.667 1.24292 10.6503 1.15439 10.6167 1.07176C10.5831 0.989135 10.5332 0.914092 10.4701 0.851078C10.4069 0.788064 10.3318 0.73836 10.2491 0.704908C10.1664 0.671457 10.0779 0.654938 9.98866 0.656331ZM3.86366 3.198C3.73115 3.19829 3.60173 3.23806 3.49193 3.31224C3.38212 3.38641 3.29691 3.49163 3.24716 3.61445C3.19742 3.73727 3.1854 3.87213 3.21265 4.00181C3.23989 4.13149 3.30516 4.25011 3.40012 4.34253L4.81418 5.75659C4.87561 5.82057 4.94919 5.87165 5.03061 5.90684C5.11203 5.94203 5.19965 5.96062 5.28834 5.96152C5.37704 5.96242 5.46502 5.94562 5.54714 5.91209C5.62925 5.87857 5.70386 5.82899 5.76657 5.76627C5.82929 5.70356 5.87887 5.62895 5.91239 5.54684C5.94592 5.46472 5.96272 5.37674 5.96182 5.28804C5.96092 5.19935 5.94233 5.11173 5.90714 5.03031C5.87195 4.94889 5.82087 4.87531 5.75689 4.81388L4.34283 3.39982C4.28055 3.3358 4.20604 3.28495 4.12373 3.25028C4.04142 3.21561 3.95298 3.19783 3.86366 3.198ZM16.1137 3.198C15.9405 3.20316 15.7761 3.27554 15.6553 3.39982L14.2413 4.81388C14.1773 4.87531 14.1262 4.94889 14.091 5.03031C14.0558 5.11173 14.0372 5.19935 14.0363 5.28804C14.0354 5.37674 14.0522 5.46472 14.0858 5.54683C14.1193 5.62895 14.1689 5.70355 14.2316 5.76627C14.2943 5.82899 14.3689 5.87856 14.451 5.91209C14.5331 5.94562 14.6211 5.96242 14.7098 5.96152C14.7985 5.96062 14.8861 5.94203 14.9675 5.90684C15.049 5.87165 15.1225 5.82057 15.184 5.75659L16.598 4.34253C16.6944 4.24889 16.7602 4.12833 16.7868 3.99665C16.8134 3.86497 16.7997 3.72831 16.7473 3.60459C16.695 3.48086 16.6064 3.37584 16.4934 3.30329C16.3803 3.23074 16.2479 3.19404 16.1137 3.198ZM9.99908 5.33211C8.7614 5.33211 7.57442 5.82378 6.69925 6.69895C5.82408 7.57412 5.33241 8.7611 5.33241 9.99878C5.33241 11.2365 5.82408 12.4234 6.69925 13.2986C7.57442 14.1738 8.7614 14.6654 9.99908 14.6654C11.2368 14.6654 12.4237 14.1738 13.2989 13.2986C14.1741 12.4234 14.6657 11.2365 14.6657 9.99878C14.6657 8.7611 14.1741 7.57412 13.2989 6.69895C12.4237 5.82378 11.2368 5.33211 9.99908 5.33211ZM1.33241 9.33211C1.24407 9.33086 1.15636 9.34718 1.07438 9.38013C0.992404 9.41307 0.91779 9.46198 0.854877 9.52401C0.791964 9.58604 0.742006 9.65995 0.707908 9.74146C0.673809 9.82296 0.65625 9.91043 0.65625 9.99878C0.65625 10.0871 0.673809 10.1746 0.707908 10.2561C0.742006 10.3376 0.791964 10.4115 0.854877 10.4736C0.91779 10.5356 0.992404 10.5845 1.07438 10.6174C1.15636 10.6504 1.24407 10.6667 1.33241 10.6654H3.33241C3.42075 10.6667 3.50846 10.6504 3.59044 10.6174C3.67242 10.5845 3.74703 10.5356 3.80995 10.4736C3.87286 10.4115 3.92282 10.3376 3.95692 10.2561C3.99101 10.1746 4.00857 10.0871 4.00857 9.99878C4.00857 9.91043 3.99101 9.82296 3.95692 9.74146C3.92282 9.65995 3.87286 9.58604 3.80995 9.52401C3.74703 9.46198 3.67242 9.41307 3.59044 9.38013C3.50846 9.34718 3.42075 9.33086 3.33241 9.33211H1.33241ZM16.6657 9.33211C16.5774 9.33086 16.4897 9.34718 16.4077 9.38013C16.3257 9.41307 16.2511 9.46198 16.1882 9.52401C16.1253 9.58604 16.0753 9.65995 16.0412 9.74146C16.0071 9.82296 15.9896 9.91043 15.9896 9.99878C15.9896 10.0871 16.0071 10.1746 16.0412 10.2561C16.0753 10.3376 16.1253 10.4115 16.1882 10.4736C16.2511 10.5356 16.3257 10.5845 16.4077 10.6174C16.4897 10.6504 16.5774 10.6667 16.6657 10.6654H18.6657C18.7541 10.6667 18.8418 10.6504 18.9238 10.6174C19.0058 10.5845 19.0804 10.5356 19.1433 10.4736C19.2062 10.4115 19.2561 10.3376 19.2902 10.2561C19.3243 10.1746 19.3419 10.0871 19.3419 9.99878C19.3419 9.91043 19.3243 9.82296 19.2902 9.74146C19.2561 9.65995 19.2062 9.58604 19.1433 9.52401C19.0804 9.46198 19.0058 9.41307 18.9238 9.38013C18.8418 9.34718 18.7541 9.33086 18.6657 9.33211H16.6657ZM5.27252 14.0391C5.09932 14.0443 4.93493 14.1167 4.81418 14.241L3.40012 15.655C3.33614 15.7165 3.28506 15.79 3.24987 15.8715C3.21468 15.9529 3.19609 16.0405 3.19519 16.1292C3.19429 16.2179 3.21109 16.3059 3.24462 16.388C3.27815 16.4701 3.32772 16.5447 3.39044 16.6074C3.45316 16.6701 3.52776 16.7197 3.60988 16.7532C3.69199 16.7868 3.77997 16.8036 3.86867 16.8027C3.95736 16.8018 4.04498 16.7832 4.1264 16.748C4.20782 16.7128 4.2814 16.6617 4.34283 16.5977L5.75689 15.1837C5.85323 15.09 5.91902 14.9695 5.94566 14.8378C5.9723 14.7061 5.95854 14.5695 5.90618 14.4457C5.85382 14.322 5.7653 14.217 5.65223 14.1444C5.53916 14.0719 5.40681 14.0352 5.27252 14.0391ZM14.7061 14.0391C14.5735 14.0392 14.4439 14.0788 14.3339 14.1528C14.2239 14.2269 14.1385 14.3321 14.0886 14.455C14.0387 14.5779 14.0265 14.7128 14.0537 14.8426C14.0809 14.9724 14.1462 15.0912 14.2413 15.1837L15.6553 16.5977C15.7168 16.6617 15.7903 16.7128 15.8718 16.748C15.9532 16.7832 16.0408 16.8018 16.1295 16.8027C16.2182 16.8036 16.3062 16.7868 16.3883 16.7532C16.4704 16.7197 16.545 16.6701 16.6077 16.6074C16.6704 16.5447 16.72 16.4701 16.7535 16.388C16.7871 16.3059 16.8039 16.2179 16.803 16.1292C16.8021 16.0405 16.7835 15.9529 16.7483 15.8715C16.7131 15.79 16.662 15.7165 16.598 15.655L15.184 14.241C15.1218 14.1771 15.0476 14.1263 14.9655 14.0917C14.8834 14.057 14.7952 14.0391 14.7061 14.0391ZM9.98866 15.9897C9.81208 15.9924 9.6438 16.0651 9.52077 16.1918C9.39773 16.3185 9.32999 16.4889 9.33241 16.6654V18.6654C9.33116 18.7538 9.34748 18.8415 9.38042 18.9235C9.41337 19.0055 9.46227 19.0801 9.5243 19.143C9.58633 19.2059 9.66025 19.2559 9.74175 19.29C9.82326 19.324 9.91073 19.3416 9.99908 19.3416C10.0874 19.3416 10.1749 19.324 10.2564 19.29C10.3379 19.2559 10.4118 19.2059 10.4739 19.143C10.5359 19.0801 10.5848 19.0055 10.6177 18.9235C10.6507 18.8415 10.667 18.7538 10.6657 18.6654V16.6654C10.667 16.5763 10.6503 16.4877 10.6167 16.4051C10.5831 16.3225 10.5332 16.2474 10.4701 16.1844C10.4069 16.1214 10.3318 16.0717 10.2491 16.0382C10.1664 16.0048 10.0779 15.9883 9.98866 15.9897Z" fill="currentColor"></path></svg>