<svg xmlns="http://www.w3.org/2000/svg" width="24" height="24" viewBox="0 0 24 24" fill="none" class=" Icon_main__igGXX"><path d="M11.9991 1.71094C11.6222 1.71094 11.2447 1.89472 11.0239 2.26266L10.5943 2.97974C10.4091 3.28833 10.1048 3.49678 9.75819 3.59173C9.75423 3.59252 9.74978 3.59403 9.74582 3.59482C9.3953 3.69135 9.02383 3.66154 8.70575 3.48509L7.97321 3.08019C7.2231 2.6632 6.29984 3.19609 6.2856 4.05381L6.27169 4.90071C6.26536 5.25915 6.10608 5.59176 5.85288 5.84497L5.84515 5.85269C5.59195 6.10669 5.25934 6.26597 4.90089 6.27151L4.05554 6.28542C3.19702 6.30045 2.66338 7.22291 3.08038 7.97303L3.48682 8.70711C3.66169 9.02282 3.69075 9.39285 3.595 9.741C3.59342 9.74733 3.5912 9.75322 3.58882 9.75955C3.49466 10.1037 3.28923 10.4074 2.98301 10.591L2.26284 11.0222C1.52697 11.4637 1.52697 12.5302 2.26284 12.971L2.98301 13.4021C3.28923 13.5857 3.49545 13.8894 3.58882 14.2336C3.59041 14.2399 3.59263 14.2458 3.595 14.2521C3.69075 14.6003 3.66169 14.9703 3.48682 15.286L3.08038 16.0216C2.66417 16.7718 3.19782 17.695 4.05554 17.7092L4.90089 17.7232C5.25934 17.7295 5.59195 17.8888 5.84515 18.142L5.85288 18.1497C6.10688 18.4029 6.26615 18.7355 6.27169 19.094L6.2856 19.9393C6.29984 20.797 7.2231 21.3307 7.97321 20.9145L8.70729 20.5065C9.02222 20.3316 9.39303 20.3026 9.74119 20.3983C9.74752 20.3999 9.7534 20.4021 9.75973 20.4045C10.1039 20.4986 10.4076 20.7056 10.5912 21.0118L11.0224 21.7305C11.4639 22.4663 12.5296 22.4663 12.9711 21.7305L13.4023 21.0118C13.5859 20.7056 13.888 20.4979 14.2322 20.4045C14.2385 20.4029 14.246 20.4007 14.2523 20.3983C14.5997 20.3026 14.9689 20.3316 15.2847 20.5065L16.0187 20.9145C16.7688 21.3307 17.6921 20.797 17.7063 19.9393L17.7203 19.094C17.7266 18.7355 17.8859 18.4029 18.1391 18.1497L18.1468 18.142C18.4 17.888 18.7326 17.7287 19.0911 17.7232L19.9379 17.7092C20.7957 17.695 21.3293 16.7718 20.9131 16.0216L20.5051 15.2876C20.3303 14.9718 20.3012 14.6018 20.3969 14.2537C20.3985 14.2473 20.4007 14.2414 20.4031 14.2351C20.4973 13.8909 20.7043 13.5872 21.0105 13.4037L21.7291 12.9725C22.4674 12.531 22.4673 11.4637 21.7322 11.0222L21.0136 10.591C20.7073 10.4074 20.4996 10.1053 20.4062 9.76109C20.4046 9.75476 20.4024 9.74733 20.4 9.741C20.3043 9.39364 20.3333 9.02437 20.5082 8.70865L20.9162 7.97457C21.3324 7.22446 20.7988 6.3012 19.941 6.28696L19.0941 6.27305C18.7357 6.26672 18.4031 6.10744 18.1499 5.85424L18.1422 5.84651C17.8882 5.59331 17.7289 5.2607 17.7233 4.90225L17.7094 4.05536C17.6944 3.19605 16.7719 2.6632 16.0218 3.08019L15.2877 3.48664C14.9728 3.66151 14.602 3.69056 14.2538 3.59482C14.2475 3.59324 14.2416 3.59101 14.2353 3.58864C13.8911 3.49448 13.5874 3.28905 13.4039 2.98283L12.9727 2.26266C12.7519 1.89472 12.3759 1.71094 11.9991 1.71094ZM9.30692 7.5944C10.5516 7.5944 11.3639 8.44914 11.3639 9.76264C11.3639 11.0706 10.5516 11.9309 9.30692 11.9309C8.06939 11.9309 7.24995 11.0706 7.24995 9.76264C7.24995 8.45468 8.06385 7.5944 9.30692 7.5944ZM13.7825 7.80458H15.7158L12.5137 12.2261L10.2713 16.1901H8.33021L11.4813 11.7902L13.7825 7.80458ZM9.30692 8.84465C8.95244 8.84465 8.7382 9.18275 8.7382 9.758C8.7382 10.3277 8.95244 10.6698 9.30692 10.6698C9.65587 10.6698 9.871 10.3269 9.871 9.758C9.871 9.17722 9.66774 8.84465 9.30692 8.84465ZM14.6943 12.0638C15.9318 12.0638 16.7451 12.9187 16.7451 14.2258C16.7451 15.5401 15.9318 16.3987 14.6943 16.3987C13.4568 16.3987 12.6435 15.5393 12.6435 14.2258C12.6435 12.9187 13.4568 12.0638 14.6943 12.0638ZM14.6943 13.314C14.3398 13.314 14.124 13.6506 14.124 14.2258C14.124 14.7956 14.3398 15.1392 14.6943 15.1392C15.0432 15.1392 15.2568 14.7956 15.2568 14.2258C15.2568 13.6443 15.048 13.314 14.6943 13.314Z" fill="currentColor"></path></svg>