<svg xmlns="http://www.w3.org/2000/svg" width="24" height="24" viewBox="0 0 24 24" fill="none" class=" Icon_main__igGXX"><path d="M4.14369 4.28516C3.27548 4.28516 2.57227 4.98837 2.57227 5.85658V17.6423C2.57227 18.5105 3.27548 19.2137 4.14369 19.2137H7.28655V22.3566C7.28655 22.565 7.36933 22.7648 7.51668 22.9122C7.66403 23.0595 7.86388 23.1423 8.07227 23.1423C8.20323 23.1421 8.33207 23.1091 8.44704 23.0464C8.56202 22.9836 8.6595 22.8932 8.73061 22.7832L11.4116 19.2137H19.858C20.7262 19.2137 21.4294 18.5105 21.4294 17.6423V5.85658C21.4294 4.98837 20.7262 4.28516 19.858 4.28516H4.14369ZM6.60672 5.85658L8.72447 7.33594L8.85031 8.10017L11.321 10.5693L12.3722 9.51814C11.8544 8.63735 11.8293 7.67627 12.6331 6.87249C13.4164 6.08913 14.7654 5.67938 15.8481 5.93945L13.5723 8.21373L15.1437 9.78516L17.418 7.51088C17.678 8.59281 17.2683 9.94251 16.4849 10.7259C15.6811 11.5297 14.7209 11.5045 13.8393 10.9867L8.2733 16.5527C7.86787 16.9582 7.21012 16.9582 6.80469 16.5527C6.39926 16.1473 6.39926 15.4896 6.80469 15.0841L10.4263 11.4625L7.95871 8.99177L7.19448 8.8644L5.71512 6.74819L6.60672 5.85658ZM14.6449 13.215L16.3898 14.9598C16.8235 15.3935 16.8235 16.0975 16.3898 16.5313C15.9561 16.965 15.2521 16.965 14.8184 16.5313L13.0735 14.7864L14.6449 13.215Z" fill="currentColor"></path></svg>