<svg xmlns="http://www.w3.org/2000/svg" width="30" height="30" viewBox="0 0 30 30" fill="none"><g clip-path="url(#clip0_3620_133411)"><path d="M0 8C0 3.58172 3.58172 0 8 0H22C26.4183 0 30 3.58172 30 8V22C30 26.4183 26.4183 30 22 30H8C3.58172 30 0 26.4183 0 22V8Z" fill="#0D99FF" fill-opacity="0.12"></path><path d="M12.5333 7.20019H8.20001C7.24407 7.20019 6.46667 7.97759 6.46667 8.93352V13.2669C6.46667 14.2228 7.24407 15.0002 8.20001 15.0002H12.5333C13.4893 15.0002 14.2667 14.2228 14.2667 13.2669V8.93352C14.2667 7.97759 13.4893 7.20019 12.5333 7.20019ZM25.0558 9.00806L21.9921 5.94352C21.317 5.26752 20.2163 5.26752 19.5412 5.94352L16.4775 9.00806C15.8015 9.68406 15.8015 10.783 16.4775 11.459L19.5412 14.5235C19.8792 14.8615 20.3229 15.0305 20.7667 15.0305C21.2104 15.0305 21.6541 14.8615 21.9921 14.5235L25.0558 11.459C25.7318 10.783 25.7318 9.68406 25.0558 9.00806ZM12.5333 16.7335H8.20001C7.24407 16.7335 6.46667 17.5109 6.46667 18.4669V22.8002C6.46667 23.7561 7.24407 24.5335 8.20001 24.5335H12.5333C13.4893 24.5335 14.2667 23.7561 14.2667 22.8002V18.4669C14.2667 17.5109 13.4893 16.7335 12.5333 16.7335ZM22.0667 16.7335H17.7333C16.7774 16.7335 16 17.5109 16 18.4669V22.8002C16 23.7561 16.7774 24.5335 17.7333 24.5335H22.0667C23.0226 24.5335 23.8 23.7561 23.8 22.8002V18.4669C23.8 17.5109 23.0226 16.7335 22.0667 16.7335Z" fill="#0D99FF"></path></g><defs><clipPath id="clip0_3620_133411"><rect width="30" height="30" fill="white"></rect></clipPath></defs></svg>