<svg xmlns="http://www.w3.org/2000/svg" width="30" height="30" viewBox="0 0 30 30" fill="none"><g clip-path="url(#clip0_3350_26490)"><mask id="mask0_3350_26490" style="mask-type:alpha" maskUnits="userSpaceOnUse" x="0" y="0" width="30" height="30"><path d="M0 13.7143C0 8.91383 0 6.51361 0.93423 4.68008C1.756 3.06726 3.06726 1.756 4.68008 0.93423C6.51361 0 8.91384 0 13.7143 0H16.2857C21.0862 0 23.4864 0 25.3199 0.93423C26.9327 1.756 28.244 3.06726 29.0658 4.68008C30 6.51361 30 8.91383 30 13.7143V16.2857C30 21.0862 30 23.4864 29.0658 25.3199C28.244 26.9327 26.9327 28.244 25.3199 29.0658C23.4864 30 21.0862 30 16.2857 30H13.7143C8.91384 30 6.51361 30 4.68008 29.0658C3.06726 28.244 1.756 26.9327 0.93423 25.3199C0 23.4864 0 21.0862 0 16.2857V13.7143Z" fill="black"></path></mask><g mask="url(#mask0_3350_26490)"><rect width="30" height="30" fill="#1B1413"></rect></g><path fill-rule="evenodd" clip-rule="evenodd" d="M15 7.00366C10.6 7.00366 7 10.6037 7 15.0037C7 19.4037 10.6 23.0037 15 23.0037C19.4 23.0037 23 19.4037 23 15.0037C23 10.6037 19.44 7.00366 15 7.00366ZM18.68 18.5637C18.52 18.8037 18.24 18.8837 18 18.7237C16.12 17.5637 13.76 17.3237 10.96 17.9637C10.68 18.0437 10.44 17.8437 10.36 17.6037C10.28 17.3237 10.48 17.0837 10.72 17.0037C13.76 16.3237 16.4 16.6037 18.48 17.8837C18.76 18.0037 18.8 18.3237 18.68 18.5637ZM19.64 16.3637C19.44 16.6437 19.08 16.7637 18.8 16.5637C16.64 15.2437 13.36 14.8437 10.84 15.6437C10.52 15.7237 10.16 15.5637 10.08 15.2437C10 14.9237 10.16 14.5637 10.48 14.4837C13.4 13.6037 17 14.0437 19.48 15.5637C19.72 15.6837 19.84 16.0837 19.64 16.3637ZM19.72 14.1237C17.16 12.6037 12.88 12.4437 10.44 13.2037C10.04 13.3237 9.64 13.0837 9.52 12.7237C9.4 12.3237 9.64 11.9237 10 11.8037C12.84 10.9637 17.52 11.1237 20.48 12.8837C20.84 13.0837 20.96 13.5637 20.76 13.9237C20.56 14.2037 20.08 14.3237 19.72 14.1237Z" fill="#1DDA63"></path></g><defs><clipPath id="clip0_3350_26490"><rect width="30" height="30" rx="8" fill="white"></rect></clipPath></defs></svg>