<svg xmlns="http://www.w3.org/2000/svg" width="28" height="28" viewBox="0 0 28 28" fill="none"><rect width="28" height="28" rx="9" fill="black"></rect><path d="M12.3593 20.1236C13.7099 20.1236 14.8117 19.0491 14.8618 17.7109L14.8663 5.75683H17.0504C17.0049 5.51127 16.9802 5.25856 16.9802 5H13.9971L13.9925 16.954C13.9425 18.2929 12.8407 19.3668 11.4901 19.3668C11.0705 19.3668 10.6748 19.2616 10.3273 19.079C10.7833 19.7105 11.5226 20.1236 12.3593 20.1236Z" fill="#25F4EE"></path><path d="M12.2301 12.1285V11.4224C11.9877 11.3892 11.7415 11.3684 11.4901 11.3684C8.46279 11.3684 6 13.8312 6 16.8586C6 18.7159 6.92834 20.3595 8.3439 21.3534C7.42986 20.3725 6.86922 19.0582 6.86922 17.6154C6.86922 14.6316 9.2625 12.198 12.2301 12.1285Z" fill="#25F4EE"></path><path d="M21.1301 9.14927V9.81385C20.2369 9.62286 19.4495 9.14277 18.87 8.47754C19.521 8.90175 20.2973 9.14927 21.1301 9.14927Z" fill="#25F4EE"></path><path d="M18.87 8.47692C18.2353 7.74802 17.8494 6.7963 17.8494 5.75623H17.0504C17.2608 6.89245 17.9352 7.86756 18.87 8.47692Z" fill="#FE2C55"></path><path d="M11.4901 14.3516C10.1077 14.3516 8.98248 15.4761 8.98248 16.8592C8.98248 17.822 9.52883 18.6587 10.3266 19.0784C10.0291 18.6665 9.8517 18.1617 9.8517 17.616C9.8517 16.2336 10.9769 15.1084 12.3593 15.1084C12.6172 15.1084 12.8647 15.1513 13.0993 15.2241V12.1792C12.8569 12.1461 12.6107 12.1253 12.3593 12.1253C12.3345 12.1253 12.3099 12.1261 12.2852 12.127C12.2666 12.1276 12.2481 12.1282 12.2294 12.1285V14.4672C11.9955 14.3938 11.748 14.3516 11.4901 14.3516Z" fill="#FE2C55"></path><path d="M21.1301 12.1324V9.81387C21.4101 9.87364 21.7018 9.90612 22 9.90612V12.8893C20.4532 12.8893 19.0201 12.3949 17.8501 11.5549V17.6167C17.8501 20.644 15.3873 23.1068 12.36 23.1068C10.7755 23.1068 9.34692 22.4312 8.34387 21.3547C9.23518 21.981 10.3201 22.35 11.4901 22.35C14.5174 22.35 16.9802 19.8872 16.9802 16.8599V10.7981C18.1502 11.6374 19.5833 12.1324 21.1301 12.1324Z" fill="#FE2C55"></path><path d="M16.9803 16.8592V10.7974C18.1503 11.6374 19.5834 12.1318 21.1302 12.1318V9.81323C20.2369 9.62224 19.4496 9.14215 18.8701 8.47692C17.9352 7.86756 17.2609 6.89245 17.0504 5.75623H14.8663L14.8618 17.7103C14.8118 19.0492 13.71 20.123 12.3594 20.123C11.5226 20.123 10.7827 19.7099 10.3267 19.0778C9.52824 18.6574 8.98254 17.8214 8.98254 16.8586C8.98254 15.4761 10.1077 14.351 11.4902 14.351C11.7481 14.351 11.9956 14.3938 12.2301 14.4666V12.1279C9.26254 12.1974 6.86926 14.631 6.86926 17.6148C6.86926 19.0583 7.4299 20.3718 8.34395 21.3528C9.2359 21.9791 10.3202 22.348 11.4902 22.348C14.5175 22.348 16.9803 19.8853 16.9803 16.8579V16.8592Z" fill="white"></path><rect x="0.2" y="0.2" width="27.6" height="27.6" rx="8.8" stroke="black" stroke-opacity="0.04" stroke-width="0.4"></rect></svg>