<svg xmlns="http://www.w3.org/2000/svg" width="28" height="28" viewBox="0 0 28 28" fill="none"><rect width="28" height="28" rx="9" fill="url(#paint0_linear_62_2812)"></rect><path fill-rule="evenodd" clip-rule="evenodd" d="M21 6.875C19.125 5 16.625 4 14 4C8.5 4 4 8.5 4 14C4 15.75 4.50001 17.5 5.37501 19L4 24L9.25002 22.625C10.75 23.375 12.375 23.875 14 23.875C19.5 23.875 24 19.375 24 13.875C24 11.25 22.875 8.75 21 6.875ZM14 22.25C12.5 22.25 11 21.875 9.75001 21.125L9.49999 21L6.37499 21.875L7.25001 18.875L6.99999 18.5C6.12499 17.125 5.74999 15.625 5.74999 14.125C5.74999 9.625 9.5 5.875 14 5.875C16.25 5.875 18.25 6.75 19.875 8.25C21.5 9.875 22.25 11.875 22.25 14.125C22.25 18.5 18.625 22.25 14 22.25ZM18.5 16C18.25 15.875 17 15.25 16.75 15.25C16.5 15.125 16.375 15.125 16.25 15.375C16.125 15.625 15.625 16.125 15.5 16.375C15.375 16.5 15.25 16.5 15 16.5C14.75 16.375 14 16.125 13 15.25C12.25 14.625 11.75 13.75 11.625 13.5C11.5 13.25 11.625 13.125 11.75 13C11.875 12.875 12 12.75 12.125 12.625C12.25 12.5 12.25 12.375 12.375 12.25C12.5 12.125 12.375 12 12.375 11.875C12.375 11.75 11.875 10.5 11.625 10C11.5 9.625 11.25 9.625 11.125 9.625C11 9.625 10.875 9.625 10.625 9.625C10.5 9.625 10.25 9.625 9.99998 9.875C9.74998 10.125 9.12501 10.75 9.12501 12C9.12501 13.25 9.99999 14.375 10.125 14.625C10.25 14.75 11.875 17.375 14.375 18.375C16.5 19.25 16.875 19 17.375 19C17.875 19 18.875 18.375 19 17.875C19.25 17.25 19.25 16.75 19.125 16.75C19 16.125 18.75 16.125 18.5 16Z" fill="white"></path><rect x="0.2" y="0.2" width="27.6" height="27.6" rx="8.8" stroke="black" stroke-opacity="0.04" stroke-width="0.4"></rect><defs><linearGradient id="paint0_linear_62_2812" x1="14" y1="0" x2="14" y2="28" gradientUnits="userSpaceOnUse"><stop stop-color="#60FB7B"></stop><stop offset="1" stop-color="#06B721"></stop></linearGradient></defs></svg>