<svg xmlns="http://www.w3.org/2000/svg" width="28" height="28" viewBox="0 0 28 28" fill="none"><rect width="28" height="28" rx="9" fill="#FF0000"></rect><path d="M23.5635 9.19512C23.3325 8.33504 22.6521 7.65469 21.792 7.42362C20.2388 7 13.9872 7 13.9872 7C13.9872 7 7.73556 7.01284 6.18229 7.43646C5.32221 7.66752 4.64185 8.34788 4.41078 9.20796C4 10.7612 4 14.009 4 14.009C4 14.009 4 17.2567 4.42362 18.8228C4.65469 19.6829 5.33504 20.3633 6.19512 20.5943C7.7484 21.018 14 21.018 14 21.018C14 21.018 20.2516 21.018 21.8049 20.5943C22.665 20.3633 23.3453 19.6829 23.5764 18.8228C24 17.2696 24 14.009 24 14.009C24 14.009 23.9872 10.7612 23.5635 9.19512Z" fill="white"></path><path d="M11.9974 17.0128L17.1836 14.009L11.9974 11.0051V17.0128Z" fill="#FF0000"></path><rect x="0.2" y="0.2" width="27.6" height="27.6" rx="8.8" stroke="black" stroke-opacity="0.04" stroke-width="0.4"></rect></svg>