<svg xmlns="http://www.w3.org/2000/svg" width="24" height="24" viewBox="0 0 24 24" fill="none" class=" Icon_main__igGXX"><path d="M6.51461 2.51199C6.51461 2.28935 6.51461 2.17804 6.54636 2.08855C6.60322 1.92826 6.73098 1.80224 6.89348 1.74616C6.98421 1.71484 7.09707 1.71484 7.32278 1.71484C7.5485 1.71484 7.66135 1.71484 7.75208 1.74616C7.91458 1.80224 8.04234 1.92826 8.09921 2.08855C8.13095 2.17804 8.13095 2.28935 8.13095 2.51199V4.10627C8.13095 4.3289 8.13095 4.44022 8.09921 4.52971C8.04234 4.68999 7.91458 4.81601 7.75208 4.8721C7.66135 4.90341 7.5485 4.90341 7.32278 4.90341C7.09707 4.90341 6.98421 4.90341 6.89348 4.8721C6.73098 4.81601 6.60322 4.68999 6.54636 4.52971C6.51461 4.44022 6.51461 4.3289 6.51461 4.10627V2.51199Z" fill="currentColor"></path><path d="M8.93728 2.51199C8.93728 2.28935 8.93728 2.17804 8.96902 2.08855C9.02588 1.92826 9.15365 1.80224 9.31615 1.74616C9.40688 1.71484 9.51973 1.71484 9.74545 1.71484C9.97116 1.71484 10.084 1.71484 10.1747 1.74616C10.3372 1.80224 10.465 1.92826 10.5219 2.08855C10.5536 2.17804 10.5536 2.28935 10.5536 2.51199V4.10627C10.5536 4.3289 10.5536 4.44022 10.5219 4.52971C10.465 4.68999 10.3372 4.81601 10.1747 4.8721C10.084 4.90341 9.97116 4.90341 9.74545 4.90341C9.51973 4.90341 9.40688 4.90341 9.31615 4.8721C9.15365 4.81601 9.02588 4.68999 8.96902 4.52971C8.93728 4.44022 8.93728 4.3289 8.93728 4.10627V2.51199Z" fill="currentColor"></path><path d="M11.3958 2.08855C11.3641 2.17804 11.3641 2.28935 11.3641 2.51199V4.10627C11.3641 4.3289 11.3641 4.44022 11.3958 4.52971C11.4527 4.68999 11.5805 4.81601 11.743 4.8721C11.8337 4.90341 11.9465 4.90341 12.1723 4.90341C12.398 4.90341 12.5108 4.90341 12.6016 4.8721C12.7641 4.81601 12.8918 4.68999 12.9487 4.52971C12.9804 4.44022 12.9804 4.3289 12.9804 4.10627V2.51199C12.9804 2.28935 12.9804 2.17804 12.9487 2.08855C12.8918 1.92826 12.7641 1.80224 12.6016 1.74616C12.5108 1.71484 12.398 1.71484 12.1723 1.71484C11.9465 1.71484 11.8337 1.71484 11.743 1.74616C11.5805 1.80224 11.4527 1.92826 11.3958 2.08855Z" fill="currentColor"></path><path d="M13.7869 2.51199C13.7869 2.28935 13.7869 2.17804 13.8186 2.08855C13.8755 1.92826 14.0033 1.80224 14.1658 1.74616C14.2565 1.71484 14.3693 1.71484 14.595 1.71484C14.8208 1.71484 14.9336 1.71484 15.0243 1.74616C15.1868 1.80224 15.3146 1.92826 15.3715 2.08855C15.4032 2.17804 15.4032 2.28935 15.4032 2.51199V4.10627C15.4032 4.3289 15.4032 4.44022 15.3715 4.52971C15.3146 4.68999 15.1868 4.81601 15.0243 4.8721C14.9336 4.90341 14.8208 4.90341 14.595 4.90341C14.3693 4.90341 14.2565 4.90341 14.1658 4.8721C14.0033 4.81601 13.8755 4.68999 13.8186 4.52971C13.7869 4.44022 13.7869 4.3289 13.7869 4.10627V2.51199Z" fill="currentColor"></path><path d="M16.2454 2.08855C16.2137 2.17804 16.2137 2.28935 16.2137 2.51199V4.10627C16.2137 4.3289 16.2137 4.44022 16.2454 4.52971C16.3023 4.68999 16.4301 4.81601 16.5926 4.8721C16.6833 4.90341 16.7961 4.90341 17.0219 4.90341C17.2476 4.90341 17.3604 4.90341 17.4512 4.8721C17.6137 4.81601 17.7414 4.68999 17.7983 4.52971C17.83 4.44022 17.83 4.3289 17.83 4.10627V2.51199C17.83 2.28935 17.83 2.17804 17.7983 2.08855C17.7414 1.92826 17.6137 1.80224 17.4512 1.74616C17.3604 1.71484 17.2476 1.71484 17.0219 1.71484C16.7961 1.71484 16.6833 1.71484 16.5926 1.74616C16.4301 1.80224 16.3023 1.92826 16.2454 2.08855Z" fill="currentColor"></path><path d="M3.42871 11.4772C3.42871 10.8055 3.42871 10.4697 3.52939 10.1598C3.5627 10.0573 3.604 9.95762 3.65293 9.8616C3.80084 9.57129 4.03831 9.33382 4.51325 8.85888L6.45845 6.91368C6.93339 6.43874 7.17086 6.20127 7.46117 6.05336C7.55719 6.00443 7.6569 5.96313 7.7594 5.92982C8.06927 5.82914 8.4051 5.82914 9.07676 5.82914H17.2115C18.7543 5.82914 19.5257 5.82914 20.0664 6.22202C20.2411 6.3489 20.3946 6.50248 20.5215 6.67712C20.9144 7.21788 20.9144 7.98925 20.9144 9.53199V14.4691C20.9144 16.0119 20.9144 16.7832 20.5215 17.324C20.3946 17.4986 20.2411 17.6522 20.0664 17.7791C19.5257 18.172 18.7543 18.172 17.2116 18.172H7.13156C5.58882 18.172 4.81745 18.172 4.27669 17.7791C4.10205 17.6522 3.94847 17.4986 3.82159 17.324C3.42871 16.7832 3.42871 16.0119 3.42871 14.4691V11.4772Z" fill="currentColor"></path><path d="M6.54636 19.4714C6.51461 19.5609 6.51461 19.6722 6.51461 19.8948V21.4891C6.51461 21.7118 6.51461 21.8231 6.54636 21.9126C6.60322 22.0729 6.73098 22.1989 6.89348 22.255C6.98421 22.2863 7.09707 22.2863 7.32278 22.2863C7.5485 22.2863 7.66135 22.2863 7.75208 22.255C7.91458 22.1989 8.04234 22.0729 8.09921 21.9126C8.13095 21.8231 8.13095 21.7118 8.13095 21.4891V19.8948C8.13095 19.6722 8.13095 19.5609 8.09921 19.4714C8.04234 19.3111 7.91458 19.1851 7.75208 19.129C7.66135 19.0977 7.5485 19.0977 7.32278 19.0977C7.09707 19.0977 6.98421 19.0977 6.89348 19.129C6.73098 19.1851 6.60322 19.3111 6.54636 19.4714Z" fill="currentColor"></path><path d="M8.96902 19.4714C8.93728 19.5609 8.93728 19.6722 8.93728 19.8948V21.4891C8.93728 21.7118 8.93728 21.8231 8.96902 21.9126C9.02588 22.0729 9.15365 22.1989 9.31615 22.255C9.40688 22.2863 9.51973 22.2863 9.74545 22.2863C9.97116 22.2863 10.084 22.2863 10.1747 22.255C10.3372 22.1989 10.465 22.0729 10.5219 21.9126C10.5536 21.8231 10.5536 21.7118 10.5536 21.4891V19.8948C10.5536 19.6722 10.5536 19.5609 10.5219 19.4714C10.465 19.3111 10.3372 19.1851 10.1747 19.129C10.084 19.0977 9.97116 19.0977 9.74545 19.0977C9.51973 19.0977 9.40688 19.0977 9.31615 19.129C9.15365 19.1851 9.02588 19.3111 8.96902 19.4714Z" fill="currentColor"></path><path d="M11.3641 19.8948C11.3641 19.6722 11.3641 19.5609 11.3958 19.4714C11.4527 19.3111 11.5805 19.1851 11.743 19.129C11.8337 19.0977 11.9465 19.0977 12.1723 19.0977C12.398 19.0977 12.5108 19.0977 12.6016 19.129C12.7641 19.1851 12.8918 19.3111 12.9487 19.4714C12.9804 19.5609 12.9804 19.6722 12.9804 19.8948V21.4891C12.9804 21.7118 12.9804 21.8231 12.9487 21.9126C12.8918 22.0729 12.7641 22.1989 12.6016 22.255C12.5108 22.2863 12.398 22.2863 12.1723 22.2863C11.9465 22.2863 11.8337 22.2863 11.743 22.255C11.5805 22.1989 11.4527 22.0729 11.3958 21.9126C11.3641 21.8231 11.3641 21.7118 11.3641 21.4891V19.8948Z" fill="currentColor"></path><path d="M13.8186 19.4714C13.7869 19.5609 13.7869 19.6722 13.7869 19.8948V21.4891C13.7869 21.7118 13.7869 21.8231 13.8186 21.9126C13.8755 22.0729 14.0033 22.1989 14.1658 22.255C14.2565 22.2863 14.3693 22.2863 14.595 22.2863C14.8208 22.2863 14.9336 22.2863 15.0243 22.255C15.1868 22.1989 15.3146 22.0729 15.3715 21.9126C15.4032 21.8231 15.4032 21.7118 15.4032 21.4891V19.8948C15.4032 19.6722 15.4032 19.5609 15.3715 19.4714C15.3146 19.3111 15.1868 19.1851 15.0243 19.129C14.9336 19.0977 14.8208 19.0977 14.595 19.0977C14.3693 19.0977 14.2565 19.0977 14.1658 19.129C14.0033 19.1851 13.8755 19.3111 13.8186 19.4714Z" fill="currentColor"></path><path d="M16.2137 19.8948C16.2137 19.6722 16.2137 19.5609 16.2454 19.4714C16.3023 19.3111 16.4301 19.1851 16.5926 19.129C16.6833 19.0977 16.7961 19.0977 17.0219 19.0977C17.2476 19.0977 17.3604 19.0977 17.4512 19.129C17.6137 19.1851 17.7414 19.3111 17.7983 19.4714C17.83 19.5609 17.83 19.6722 17.83 19.8948V21.4891C17.83 21.7118 17.83 21.8231 17.7983 21.9126C17.7414 22.0729 17.6137 22.1989 17.4512 22.255C17.3604 22.2863 17.2476 22.2863 17.0219 22.2863C16.7961 22.2863 16.6833 22.2863 16.5926 22.255C16.4301 22.1989 16.3023 22.0729 16.2454 21.9126C16.2137 21.8231 16.2137 21.7118 16.2137 21.4891V19.8948Z" fill="currentColor"></path></svg>