<svg xmlns="http://www.w3.org/2000/svg" width="20" height="20" viewBox="0 0 20 20" fill="none"><path d="M3.62565 3.6665C2.81498 3.6665 2.1535 4.27817 2.06087 5.06429L9.95898 9.99984L17.8571 5.06429C17.7645 4.27817 17.103 3.6665 16.2923 3.6665H3.62565ZM2.04232 6.6368V8.4165H1.25065C0.813651 8.4165 0.458984 8.77117 0.458984 9.20817C0.458984 9.64517 0.813651 9.99984 1.25065 9.99984H2.04232H3.62565H4.41732C4.85432 9.99984 5.20898 10.3545 5.20898 10.7915C5.20898 11.2285 4.85432 11.5832 4.41732 11.5832H2.04232H1.25065C0.813651 11.5832 0.458984 11.9378 0.458984 12.3748C0.458984 12.8118 0.813651 13.1665 1.25065 13.1665H2.04232H5.20898H6.00065C6.43765 13.1665 6.79232 13.5212 6.79232 13.9582C6.79232 14.3952 6.43765 14.7498 6.00065 14.7498H2.04232H1.25065C0.813651 14.7498 0.458984 15.1045 0.458984 15.5415C0.458984 15.9785 0.813651 16.3332 1.25065 16.3332H3.62565H6.79232H16.2923C17.1671 16.3332 17.8757 15.6246 17.8757 14.7498V6.6368L10.378 11.3219C10.1215 11.4818 9.79646 11.4818 9.53996 11.3219L2.04232 6.6368Z" fill="var(--iconWhiteToBlack)"></path></svg>