<svg xmlns="http://www.w3.org/2000/svg" width="24" height="24" viewBox="0 0 30 30" fill="none" class=" Icon_main__igGXX"><path d="M20.7372 18.0146C20.3474 17.7861 19.8684 17.7909 19.4805 18.0213L17.5164 19.1915C17.0767 19.4536 16.5276 19.4229 16.1244 19.108C15.4274 18.5637 14.3052 17.6478 13.3288 16.6715C12.3525 15.6952 11.4367 14.573 10.8924 13.876C10.5775 13.4728 10.5468 12.9237 10.8088 12.484L11.9791 10.5198C12.2104 10.132 12.2124 9.64912 11.9839 9.25936L9.101 4.33552C8.82164 3.85936 8.26676 3.62512 7.73012 3.75664C7.20884 3.88432 6.53204 4.19344 5.8226 4.90288C3.60116 7.12432 2.42132 10.8712 10.7752 19.2251C19.1292 27.579 22.877 26.4002 25.0984 24.1787C25.8098 23.4674 26.118 22.7896 26.2456 22.2674C26.3752 21.7317 26.1448 21.1806 25.6696 20.9022C24.4831 20.2082 21.9237 18.7096 20.7372 18.0146Z" fill="currentColor"></path></svg>