<svg xmlns="http://www.w3.org/2000/svg" width="24" height="24" viewBox="0 0 24 24" fill="none" class=" Icon_main__igGXX"><path d="M4.28655 2.57031C3.34964 2.57031 2.57227 3.34769 2.57227 4.2846V13.7132C2.57227 14.6501 3.34964 15.4275 4.28655 15.4275H8.57227V19.7132C8.57227 20.6603 9.33941 21.4275 10.2866 21.4275H19.7151C20.6623 21.4275 21.4294 20.6603 21.4294 19.7132V10.2846C21.4294 9.33746 20.6623 8.57031 19.7151 8.57031H15.4294V4.2846C15.4294 3.34769 14.652 2.57031 13.7151 2.57031H4.28655ZM4.28655 4.2846H13.7151V9.42746L9.42941 13.7132H4.28655V4.2846ZM8.57227 5.57031V6.85603H6.00084V7.71317H10.2866C10.2866 9.04088 9.91248 9.83798 9.22349 10.3616C9.03511 10.5048 8.81063 10.6248 8.5639 10.7282C8.28715 10.5914 8.0272 10.4364 7.80887 10.2528C7.19423 9.7358 6.85798 9.07753 6.85798 8.57031H6.00084C6.00084 9.4251 6.49256 10.2665 7.25642 10.909C7.307 10.9516 7.36902 10.9855 7.42215 11.0262C6.99235 11.0949 6.52976 11.1417 6.00084 11.1417V11.9989C6.95682 11.9989 7.80779 11.9 8.53544 11.6607C9.06585 11.8703 9.65396 11.9989 10.2866 11.9989V11.1417C10.0768 11.1417 9.87628 11.1158 9.67885 11.0848C9.6993 11.07 9.72236 11.0583 9.74247 11.043C10.6606 10.3452 11.1437 9.21404 11.1437 7.71317H12.0008V6.85603H9.42941V5.57031H8.57227ZM14.06 11.9788H15.9383L17.969 18.019H16.2949L15.9182 16.6914H13.9461L13.5578 18.019H12.0343L14.06 11.9788ZM14.9004 13.3398L14.2391 15.5865H15.6286L14.9807 13.3398H14.9004Z" fill="currentColor"></path></svg>