<svg xmlns="http://www.w3.org/2000/svg" width="139" height="24" viewBox="0 0 139 24" fill="none"><path d="M138.015 14.9949C137.016 16.6139 135.297 17.5072 133.19 17.5072C129.918 17.5072 127.645 14.8832 127.645 11.1427C127.645 7.45796 129.807 4.83398 132.913 4.83398C135.796 4.83398 138.07 7.40213 138.07 10.6402C138.07 10.9752 138.07 11.1985 138.015 11.5893H129.419C129.53 12.9851 129.863 13.9341 130.639 14.7158C131.305 15.4415 132.192 15.8882 133.135 15.8882C134.632 15.8882 135.907 15.1624 136.517 13.8783L138.015 14.9949ZM136.24 10.0819C136.074 7.84876 134.798 6.3972 133.024 6.3972C131.859 6.3972 130.805 7.01132 130.14 8.07208C129.807 8.6862 129.641 9.18866 129.53 10.0819H136.24Z" fill="#FF008C"></path><path d="M124.373 17.2281V1.20508H126.092V17.2281H124.373Z" fill="#FF008C"></path><path d="M120.38 3.66122V1.65137H122.376V3.66122H120.38ZM120.491 17.2277V5.16861H122.21V17.2277H120.491Z" fill="#FF008C"></path><path d="M110.176 6.62051C111.063 5.4481 112.173 4.88981 113.614 4.88981C116.72 4.88981 118.883 7.45795 118.883 11.1985C118.883 14.9391 116.72 17.5072 113.614 17.5072C112.228 17.5072 111.174 17.0047 110.232 15.8882L109.954 17.2281H108.457V1.20508H110.176V6.62051ZM110.121 11.1985C110.121 13.9341 111.563 15.944 113.614 15.944C115.611 15.944 117.108 13.9341 117.108 11.2543C117.108 8.51871 115.611 6.50885 113.614 6.50885C111.563 6.50885 110.121 8.46288 110.121 11.1985Z" fill="#FF008C"></path><path d="M106.794 11.1984C106.794 14.9389 104.631 17.5071 101.47 17.5071C98.3092 17.5071 96.1465 14.9389 96.1465 11.1984C96.1465 7.45779 98.3092 4.88965 101.47 4.88965C104.631 4.88965 106.794 7.45779 106.794 11.1984ZM98.0319 11.1984C98.0319 13.934 99.5292 15.9438 101.526 15.9438C103.522 15.9438 105.019 13.934 105.019 11.2542C105.019 8.51855 103.577 6.5087 101.526 6.5087C99.4738 6.5087 98.0319 8.46272 98.0319 11.1984Z" fill="#FF008C"></path><path d="M94.538 2.1543V17.1724H92.8189V4.33164L88.3825 11.6453L83.9462 4.33164V17.2282H82.2271V2.1543H84.5007L88.3825 8.57466L92.2644 2.1543H94.538Z" fill="#FF008C"></path><path d="M62.539 19.5723H16.1787L19.8942 23.3128L62.539 19.5723Z" fill="#FF008C"></path><path d="M69.9706 17.2279V9.74682C69.9706 8.35109 70.9133 7.17868 72.2997 7.17868C73.686 7.17868 74.6288 8.35109 74.6288 9.74682V17.1721H77.5124V9.74682C77.5124 6.67621 75.4606 4.21973 72.4106 4.21973C71.0242 4.21973 69.9706 5.00134 69.9706 5.00134V4.5547H67.0869V17.2279H69.9706Z" fill="#FF008C"></path><path d="M60.4874 4.21973C57.1602 4.21973 54.8311 7.12285 54.8311 10.8634C54.8311 14.7715 57.8256 17.5071 60.7647 17.5071C62.262 17.5071 64.2029 17.0046 65.8111 14.6598L63.3157 13.2082C61.3747 16.1114 58.1029 14.6598 57.7147 11.7567H65.922C66.6984 7.2345 63.7593 4.21973 60.4874 4.21973ZM62.9829 9.24436H57.8811C58.4911 6.28541 62.4284 6.11792 62.9829 9.24436Z" fill="#FF008C"></path><path d="M53.9436 14.2128C53.6664 14.3803 53.3891 14.5478 53.0009 14.5478C52.5573 14.5478 51.67 14.2128 51.67 12.9846V7.56911H54.11V4.55434H51.67V1.37207H48.7863V4.55434H47.2891V7.56911H48.7863V13.0404C48.7863 15.8877 50.8936 17.5625 53.0564 17.5625C53.8327 17.5625 54.9418 17.2834 55.8291 16.7809L53.9436 14.2128Z" fill="#FF008C"></path><path d="M43.3516 4.55469V11.98C43.3516 13.3757 42.4089 14.5481 41.0225 14.5481C39.6362 14.5481 38.6934 13.3757 38.6934 11.98V4.55469H35.8652V11.98C35.8652 15.0506 37.9171 17.5071 40.9671 17.5071C42.3535 17.5071 43.4071 16.7255 43.4071 16.7255V17.1721H46.2353V4.55469H43.3516Z" fill="#FF008C"></path><path d="M30.4307 10.4724L35.3662 4.55455H31.3179L27.9352 8.96505V0.311523H24.9961V17.2278H27.9352V11.9798L32.1498 17.2278H36.1425L30.4307 10.4724Z" fill="#FF008C"></path><path d="M20.5043 4.5547V5.113C19.6171 4.5547 18.8961 4.21973 17.787 4.21973C14.5152 4.21973 12.0752 7.17868 12.0752 10.8634C12.0752 14.5481 14.5707 17.5071 17.787 17.5071C18.8407 17.5071 19.6171 17.1721 20.5043 16.6138V17.1721H23.3325V4.5547H20.5043ZM17.787 14.4923C16.1789 14.4923 15.0143 12.9291 15.0143 10.9192C15.0143 8.90938 16.1789 7.34616 17.787 7.34616C19.3952 7.34616 20.5043 8.90938 20.5043 10.9192C20.5043 12.8733 19.3952 14.4923 17.787 14.4923Z" fill="#FF008C"></path><path d="M3.86789 17.2276V12.3146H5.97517L9.6352 17.2276H13.3507L8.91428 11.3097C10.3007 10.3047 11.1879 8.6857 11.1879 6.84333C11.1879 3.82856 8.74792 1.37207 5.75336 1.37207H0.817871V17.1717H3.86789V17.2276ZM3.86789 4.38685H5.80881C7.13973 4.38685 8.24882 5.50343 8.24882 6.84333C8.24882 8.18323 7.13973 9.29982 5.80881 9.29982H3.86789V4.38685Z" fill="#FF008C"></path></svg>