<svg xmlns="http://www.w3.org/2000/svg" width="17" height="17" viewBox="0 0 17 17" fill="none" class=" Icon_secondary__0QdAz"><path fill-rule="evenodd" clip-rule="evenodd" d="M3.77901 0.874573H13.3149C15.1008 0.874573 16.5468 2.32057 16.5488 4.10657V13.6426C16.5488 15.4286 15.1008 16.8746 13.3169 16.8746H3.77901C1.99304 16.8746 0.547058 15.4286 0.547058 13.6446V4.10657C0.547058 2.32057 1.99304 0.874573 3.77901 0.874573ZM8.79592 3.98831L8.47192 4.54831L8.15393 3.98631C7.94993 3.63631 7.50794 3.51831 7.15795 3.71831C6.80795 3.92231 6.68995 4.36431 6.88995 4.71431L7.63194 6.00231L5.25598 10.1203H3.40001C2.99601 10.1203 2.67202 10.4443 2.67202 10.8483C2.67202 11.2523 2.99601 11.5763 3.40001 11.5763H10.0199C10.3379 10.9803 9.9279 10.1203 9.19591 10.1203H6.93795L10.0599 4.71631C10.2599 4.36631 10.1419 3.92031 9.7919 3.72031C9.44191 3.52031 8.99592 3.63831 8.79592 3.98831ZM4.96398 13.5403L5.66397 12.3263C5.28598 11.8703 4.80798 11.7303 4.21999 11.9123L3.7 12.8123C3.5 13.1623 3.618 13.6083 3.968 13.8083C4.31799 14.0083 4.76398 13.8903 4.96398 13.5403ZM13.5858 10.1243H11.6919C11.5468 9.87316 11.4074 9.63158 11.2734 9.39958C10.5263 8.10555 9.95123 7.10965 9.54591 6.41431C9.11591 6.77231 8.67992 7.82831 9.28991 8.88031C9.55438 9.33914 9.87831 9.89997 10.2614 10.5631C10.7415 11.3945 11.3146 12.3866 11.9799 13.5403C12.1839 13.8903 12.6259 14.0083 12.9759 13.8083C13.3258 13.6043 13.4438 13.1623 13.2438 12.8123L12.5339 11.5803H13.5858C13.9898 11.5803 14.3138 11.2563 14.3138 10.8523C14.3138 10.4483 13.9898 10.1243 13.5858 10.1243Z" fill="currentColor"></path></svg>