<svg xmlns="http://www.w3.org/2000/svg" width="16" height="18" viewBox="0 0 16 18" fill="none"><path d="M12 0H5.5C4.4 0 3.5 0.9 3.5 2V16C3.5 17.1 4.4 18 5.5 18H12C13.1 18 14 17.1 14 16V2C14 0.9 13.1 0 12 0ZM8.75 2.5C9.16 2.5 9.5 2.84 9.5 3.25C9.5 3.66 9.16 4 8.75 4C8.34 4 8 3.66 8 3.25C8 2.84 8.34 2.5 8.75 2.5ZM10 15H7C6.59 15 6.25 14.66 6.25 14.25C6.25 13.84 6.59 13.5 7 13.5H10C10.41 13.5 10.75 13.84 10.75 14.25C10.75 14.66 10.41 15 10 15ZM11.2 7.5L8.8 9.9C8.7 10 8.55 10.05 8.4 10.05C8.25 10.05 8.1 10 8 9.9L6.8 8.7C6.6 8.5 6.6 8.2 6.8 8C7 7.8 7.3 7.8 7.5 8L8.4 9L10.3 7.1C10.5 6.9 10.8 6.9 11 7.1C11.2 7.3 11.2 7.6 11.2 7.5Z" fill="currentColor" fill-opacity="0.74"></path></svg>