<svg xmlns="http://www.w3.org/2000/svg" width="24" height="24" viewBox="0 0 24 24" fill="none" class=" Icon_main__igGXX"><path d="M8.39961 1.60156C4.64441 1.60156 1.59961 4.64636 1.59961 8.40156C1.59961 11.7552 4.03021 14.5362 7.22461 15.0938C7.29021 14.0074 7.56041 12.9782 7.99961 12.0422V11.9781C6.49961 11.8629 5.56507 11.0863 5.53867 9.87188H7.19492C7.23732 10.3687 7.7351 10.6859 8.4543 10.6859C8.5927 10.6859 8.71638 10.6647 8.83398 10.6375C9.04678 10.3487 9.27428 10.0733 9.52148 9.81406C9.46228 9.50926 9.16436 9.32358 8.46836 9.18438L7.56992 9.00469C6.32032 8.76789 5.67617 8.0869 5.67617 7.0125C5.67617 5.7885 6.58121 4.95933 7.99961 4.82813V4.00156H8.79961V4.82969C10.1748 4.96569 11.1021 5.77845 11.1277 6.93125H9.52305C9.48545 6.44805 9.02643 6.1125 8.41523 6.1125C7.80403 6.1125 7.40273 6.40185 7.40273 6.85625C7.40273 7.22985 7.70541 7.44746 8.42461 7.58906L9.30586 7.75938C10.1011 7.91298 10.6315 8.19246 10.9387 8.61406C12.1395 7.81086 13.5614 7.31856 15.0918 7.22656C14.5342 4.03216 11.7532 1.60156 8.39961 1.60156ZM15.5996 8.80156C11.8444 8.80156 8.79961 11.8464 8.79961 15.6016C8.79961 19.3568 11.8444 22.4016 15.5996 22.4016C19.3548 22.4016 22.3996 19.3568 22.3996 15.6016C22.3996 11.8464 19.3548 8.80156 15.5996 8.80156ZM16.573 12.1234C16.9234 12.1234 17.279 12.1621 17.4934 12.2141V13.5859C17.2502 13.5443 16.9753 13.5266 16.6105 13.5266C15.6577 13.5266 14.98 13.8958 14.648 14.5766H17.1277V15.3672H14.4371C14.4275 15.4512 14.423 15.541 14.423 15.6234C14.423 15.7354 14.4282 15.8437 14.4418 15.9469H17.1277V16.7406H14.684C15.016 17.3854 15.6745 17.7359 16.5809 17.7359C16.9497 17.7359 17.3191 17.7211 17.5199 17.6891V19.0859C17.2865 19.1139 17.0026 19.1313 16.5777 19.1313C14.4849 19.1313 13.2328 18.2774 12.8496 16.7406H12.0605V15.9453H12.734C12.7244 15.8429 12.7184 15.7401 12.7184 15.6281C12.7184 15.5401 12.7229 15.4496 12.7277 15.3656H12.0605V14.5766H12.8355C13.2003 13.007 14.4562 12.1234 16.573 12.1234Z" fill="currentColor"></path></svg>