<svg xmlns="http://www.w3.org/2000/svg" width="24" height="24" viewBox="0 0 24 24" fill="none" class=" Icon_main__igGXX"><path d="M4.24707 16.4951C4.86313 15.694 6.06749 15.0002 7.28563 14.5167C7.48173 14.4389 7.68352 14.3644 7.88959 14.2941C7.43436 14.2004 6.98017 14.1468 6.55353 14.1468C4.68051 14.1468 2.27729 15.1804 1.58577 16.0977C1.15843 16.6649 1.56524 17.4859 2.2661 17.4859H3.82594C3.87275 17.1457 4.00804 16.806 4.24707 16.4951Z" fill="currentColor"></path><path d="M6.90073 8.72072C6.90073 7.96265 7.08382 7.24738 7.40819 6.61671C7.17073 6.55008 6.92067 6.5145 6.66245 6.5145C5.11297 6.5145 3.85711 7.79577 3.85711 9.37662V9.85364C3.85711 11.4345 5.11297 12.7158 6.66245 12.7158C7.16254 12.7158 7.63204 12.5823 8.03861 12.3484C7.33006 11.5383 6.90073 10.4778 6.90073 9.317V8.72072Z" fill="currentColor"></path><path d="M21.8435 17.4859H19.6868C19.6399 17.1457 19.5048 16.8062 19.2658 16.4952C18.6497 15.6947 17.4448 15.0005 16.2265 14.517C16.1054 14.4689 15.9822 14.4222 15.8571 14.3769C16.4314 14.2327 17.0153 14.1468 17.5552 14.1468C19.4282 14.1468 21.8324 15.1809 22.5239 16.0977C22.9512 16.6649 22.5444 17.4859 21.8435 17.4859Z" fill="currentColor"></path><path d="M17.3375 12.7158C16.6718 12.7158 16.0602 12.4792 15.5792 12.0841C16.1589 11.3137 16.5025 10.3555 16.5025 9.317V8.72072C16.5025 8.04 16.3549 7.39378 16.0899 6.81234C16.4657 6.6217 16.8893 6.5145 17.3375 6.5145C18.887 6.5145 20.1428 7.79577 20.1428 9.37662V9.85364C20.1428 11.4345 18.887 12.7158 17.3375 12.7158Z" fill="currentColor"></path><path d="M11.7021 5.14307C9.72602 5.14307 7.92931 6.74466 7.92931 8.72072V9.317C7.92931 11.2931 9.72602 12.8947 11.7021 12.8947C13.6781 12.8947 15.2797 11.2931 15.2797 9.317V8.72072C15.2797 6.74466 13.6781 5.14307 11.7021 5.14307ZM11.7009 14.6834C9.31224 14.6834 6.24737 15.9754 5.36548 17.1221C4.82049 17.8311 5.33932 18.8574 6.23313 18.8574H17.1699C18.0637 18.8574 18.5825 17.8311 18.0374 17.1221C17.1556 15.9761 14.0896 14.6834 11.7009 14.6834Z" fill="currentColor"></path></svg>