<svg xmlns="http://www.w3.org/2000/svg" width="14" height="38" viewBox="0 0 14 38" fill="none" class="ReviewsBlock_wreathLeft___Wo7X"><path opacity="0.5" fill-rule="evenodd" clip-rule="evenodd" d="M11.5729 0.271118C13.5258 2.81565 13.089 6.46647 10.5711 8.47599C10.5203 8.51653 10.469 8.55609 10.4173 8.59468C8.46442 6.05015 8.90122 2.39933 11.4192 0.389808C11.47 0.349272 11.5212 0.309709 11.5729 0.271118ZM1.17575 14.014C0.783648 17.7542 3.46165 21.1086 7.17755 21.5695C7.18779 21.4951 7.19688 21.4202 7.20477 21.3448C7.59678 17.6046 4.91885 14.2502 1.20295 13.7893C1.19265 13.8637 1.18355 13.9386 1.17575 14.014ZM0.258348 22.97C4.27355 22.1374 8.23313 24.6707 9.14591 28.6868C9.16434 28.7679 9.18138 28.849 9.19706 28.93C5.18185 29.7627 1.22235 27.2294 0.309547 23.2132C0.291147 23.1322 0.274048 23.0511 0.258348 22.97ZM13.5471 36.9138C9.27813 38.559 4.45975 36.4886 2.72635 32.2332C2.69135 32.1473 2.65785 32.0611 2.62585 31.9747C6.8948 30.3295 11.7132 32.3998 13.4466 36.6552C13.4816 36.7412 13.5151 36.8274 13.5471 36.9138ZM4.67115 6.41886C3.45825 9.60034 5.02113 13.1583 8.16528 14.4259C8.19168 14.3629 8.21715 14.2992 8.24167 14.2349C9.45463 11.0534 7.89174 7.4955 4.74755 6.22786C4.72115 6.29088 4.69575 6.35455 4.67115 6.41886Z" fill="#ACAEB4"></path></svg>