<svg xmlns="http://www.w3.org/2000/svg" width="35" height="35" viewBox="0 0 42 43" fill="none" class="CoreAdvantagesTrustSection_aboutBlockPhoneIcon__scSb8 Icon_whiteMain__s1iY0"><path fill="currentColor" d="M37.7992 29.3235C37.7992 24.1075 33.5694 19.8735 28.3492 19.8735C27.6743 19.8735 27.0178 19.9474 26.3832 20.0814C25.0652 23.3981 22.4239 26.0395 19.1096 27.3562C18.9731 27.9904 18.8992 28.6481 18.8992 29.3235C18.8992 34.542 23.1349 38.7735 28.3492 38.7735C30.0582 38.7735 31.655 38.314 33.0389 37.5214L37.7992 38.7735L36.5472 34.0128C37.3397 32.6293 37.7992 31.0308 37.7992 29.3235ZM31.8986 30.1521L28.3522 33.6986L24.8057 30.1521C23.9338 29.2827 23.9338 27.8715 24.8057 27.0021C25.6751 26.1315 27.0863 26.1315 27.9586 27.0021L28.3526 27.3948L28.7465 27.0021C29.6189 26.1315 31.0301 26.1315 31.8995 27.0021C32.768 27.8715 32.768 29.2823 31.8986 30.1521ZM14.3494 5.17346C8.74362 5.17346 4.19922 9.71786 4.19922 15.3236C4.19922 17.1586 4.6944 18.8755 5.54448 20.3602L4.19922 25.4733L9.31272 24.1281C10.7999 24.9798 12.5144 25.4733 14.3494 25.4733C19.9547 25.4733 24.4995 20.9289 24.4995 15.3232C24.4995 9.71786 19.9547 5.17346 14.3494 5.17346ZM19.2138 15.2854L18.2759 19.0343C18.1147 19.6878 17.428 20.2237 16.7555 20.2237H13.1242L11.2241 19.272C10.923 19.1187 10.4009 18.9986 10.0616 18.9986H9.44922V15.3236H9.58068C10.2535 15.3236 11.0981 14.8549 11.4564 14.2845L13.868 10.4235H15.0932C15.4296 10.4235 15.6375 10.6914 15.5556 11.0169L14.787 14.0985H18.2873C18.9597 14.0985 19.378 14.6319 19.2138 15.2854Z"></path></svg>