<svg xmlns="http://www.w3.org/2000/svg" width="56" height="56" viewBox="0 0 48 48" fill="none"><rect width="48" height="48" rx="24" fill="#34C759" fill-opacity="0.1"></rect><path fill-rule="evenodd" clip-rule="evenodd" d="M19.3876 9.30469C19.0348 9.30469 18.7488 9.59071 18.7488 9.94353V12.4989C18.7488 12.8517 19.0348 13.1378 19.3876 13.1378C19.7404 13.1378 20.0265 12.8517 20.0265 12.4989V9.94353C20.0265 9.59071 19.7404 9.30469 19.3876 9.30469ZM14.9155 23.1033C14.9155 19.7574 14.9155 18.0844 15.6686 16.8554C16.0901 16.1677 16.6682 15.5895 17.3559 15.1681C18.5849 14.415 20.2579 14.415 23.6038 14.415H25.3926C28.7386 14.415 30.4115 14.415 31.6405 15.1681C32.3282 15.5895 32.9064 16.1677 33.3278 16.8554C34.0809 18.0844 34.0809 19.7574 34.0809 23.1033V24.8921C34.0809 28.238 34.0809 29.911 33.3278 31.14C32.9064 31.8277 32.3282 32.4059 31.6405 32.8273C30.4115 33.5804 28.7386 33.5804 25.3926 33.5804H23.6038C20.2579 33.5804 18.5849 33.5804 17.3559 32.8273C16.6682 32.4059 16.0901 31.8277 15.6686 31.14C14.9155 29.911 14.9155 28.238 14.9155 24.8921V23.1033ZM10.4435 29.748C10.0907 29.748 9.80469 29.462 9.80469 29.1092C9.80469 28.7563 10.0907 28.4703 10.4435 28.4703H12.9989C13.3517 28.4703 13.6378 28.7563 13.6378 29.1092C13.6378 29.462 13.3517 29.748 12.9989 29.748H10.4435ZM9.80494 26.554C9.80494 26.9068 10.091 27.1929 10.4438 27.1929H12.9992C13.352 27.1929 13.638 26.9068 13.638 26.554C13.638 26.2012 13.352 25.9152 12.9992 25.9152H10.4438C10.091 25.9152 9.80494 26.2012 9.80494 26.554ZM10.4438 24.6377C10.091 24.6377 9.80494 24.3517 9.80494 23.9988C9.80494 23.646 10.091 23.36 10.4438 23.36H12.9992C13.352 23.36 13.638 23.646 13.638 23.9988C13.638 24.3517 13.352 24.6377 12.9992 24.6377H10.4438ZM9.80494 21.4427C9.80494 21.7955 10.091 22.0815 10.4438 22.0815H12.9992C13.352 22.0815 13.638 21.7955 13.638 21.4427C13.638 21.0898 13.352 20.8038 12.9992 20.8038H10.4438C10.091 20.8038 9.80494 21.0898 9.80494 21.4427ZM10.4438 19.5274C10.091 19.5274 9.80494 19.2414 9.80494 18.8885C9.80494 18.5357 10.091 18.2497 10.4438 18.2497H12.9992C13.352 18.2497 13.638 18.5357 13.638 18.8885C13.638 19.2414 13.352 19.5274 12.9992 19.5274H10.4438ZM21.3042 9.94353C21.3042 9.59071 21.5902 9.30469 21.943 9.30469C22.2959 9.30469 22.5819 9.59071 22.5819 9.94353V12.4989C22.5819 12.8517 22.2959 13.1378 21.943 13.1378C21.5902 13.1378 21.3042 12.8517 21.3042 12.4989V9.94353ZM24.4985 9.30469C24.1456 9.30469 23.8596 9.59071 23.8596 9.94353V12.4989C23.8596 12.8517 24.1456 13.1378 24.4985 13.1378C24.8513 13.1378 25.1373 12.8517 25.1373 12.4989V9.94353C25.1373 9.59071 24.8513 9.30469 24.4985 9.30469ZM26.415 9.94353C26.415 9.59071 26.701 9.30469 27.0539 9.30469C27.4067 9.30469 27.6927 9.59071 27.6927 9.94353V12.4989C27.6927 12.8517 27.4067 13.1378 27.0539 13.1378C26.701 13.1378 26.415 12.8517 26.415 12.4989V9.94353ZM29.6093 9.30469C29.2565 9.30469 28.9704 9.59071 28.9704 9.94353V12.4989C28.9704 12.8517 29.2565 13.1378 29.6093 13.1378C29.9621 13.1378 30.2481 12.8517 30.2481 12.4989V9.94353C30.2481 9.59071 29.9621 9.30469 29.6093 9.30469ZM18.7488 35.4982C18.7488 35.1454 19.0348 34.8594 19.3876 34.8594C19.7404 34.8594 20.0265 35.1454 20.0265 35.4982V38.0536C20.0265 38.4064 19.7404 38.6924 19.3876 38.6924C19.0348 38.6924 18.7488 38.4064 18.7488 38.0536V35.4982ZM21.943 34.8583C21.5902 34.8583 21.3042 35.1444 21.3042 35.4972V38.0526C21.3042 38.4054 21.5902 38.6914 21.943 38.6914C22.2959 38.6914 22.5819 38.4054 22.5819 38.0526V35.4972C22.5819 35.1444 22.2959 34.8583 21.943 34.8583ZM23.8596 35.4972C23.8596 35.1444 24.1456 34.8583 24.4985 34.8583C24.8513 34.8583 25.1373 35.1444 25.1373 35.4972V38.0526C25.1373 38.4054 24.8513 38.6914 24.4985 38.6914C24.1456 38.6914 23.8596 38.4054 23.8596 38.0526V35.4972ZM27.0539 34.8583C26.701 34.8583 26.415 35.1444 26.415 35.4972V38.0526C26.415 38.4054 26.701 38.6914 27.0539 38.6914C27.4067 38.6914 27.6927 38.4054 27.6927 38.0526V35.4972C27.6927 35.1444 27.4067 34.8583 27.0539 34.8583ZM28.9704 35.4972C28.9704 35.1444 29.2565 34.8583 29.6093 34.8583C29.9621 34.8583 30.2481 35.1444 30.2481 35.4972V38.0526C30.2481 38.4054 29.9621 38.6914 29.6093 38.6914C29.2565 38.6914 28.9704 38.4054 28.9704 38.0526V35.4972ZM35.3589 29.1092C35.3589 29.462 35.6449 29.748 35.9977 29.748H38.5531C38.9059 29.748 39.1919 29.462 39.1919 29.1092C39.1919 28.7563 38.9059 28.4703 38.5531 28.4703H35.9977C35.6449 28.4703 35.3589 28.7563 35.3589 29.1092ZM35.9977 27.1929C35.6449 27.1929 35.3589 26.9068 35.3589 26.554C35.3589 26.2012 35.6449 25.9152 35.9977 25.9152H38.5531C38.9059 25.9152 39.1919 26.2012 39.1919 26.554C39.1919 26.9068 38.9059 27.1929 38.5531 27.1929H35.9977ZM35.3589 23.9988C35.3589 24.3517 35.6449 24.6377 35.9977 24.6377H38.5531C38.9059 24.6377 39.1919 24.3517 39.1919 23.9988C39.1919 23.646 38.9059 23.36 38.5531 23.36H35.9977C35.6449 23.36 35.3589 23.646 35.3589 23.9988ZM35.9977 22.0815C35.6449 22.0815 35.3589 21.7955 35.3589 21.4427C35.3589 21.0898 35.6449 20.8038 35.9977 20.8038H38.5531C38.9059 20.8038 39.1919 21.0898 39.1919 21.4427C39.1919 21.7955 38.9059 22.0815 38.5531 22.0815H35.9977ZM35.3589 18.8885C35.3589 19.2414 35.6449 19.5274 35.9977 19.5274H38.5531C38.9059 19.5274 39.1919 19.2414 39.1919 18.8885C39.1919 18.5357 38.9059 18.2497 38.5531 18.2497H35.9977C35.6449 18.2497 35.3589 18.5357 35.3589 18.8885Z" fill="#34C759"></path></svg>